<svg width="462" height="268" viewBox="0 0 462 268" fill="none" xmlns="http://www.w3.org/2000/svg">
<path d="M10.0059 131.102L25.7381 127.169V11.7992L10.0059 7.86613V3.93307H33.6042C43.9176 3.93307 52.0459 7.25432 57.9892 13.8968C60.2617 16.5189 62.1845 19.7527 63.7577 23.5984C66.3798 18.7039 69.1766 14.7708 72.1483 11.7992C80.0144 3.93306 89.0167 -8.86341e-07 99.1553 0C109.294 8.86341e-07 118.209 2.27244 125.9 6.81732C133.591 11.1874 139.535 17.2181 143.73 24.9094C146.352 19.8401 149.149 15.7323 152.121 12.5858C160.161 4.19528 169.164 6.12034e-06 179.128 6.9914e-06C188.392 7.80133e-06 196.695 1.92284 204.037 5.76851C211.553 9.61417 217.322 14.8583 221.342 21.5008C225.538 28.1433 227.635 35.3976 227.635 43.2637V127.169L243.368 131.102V135.035H209.281C193.549 135.035 185.683 127.169 185.683 111.437V43.2637C185.683 31.9015 183.935 23.4236 180.439 17.8299C176.943 12.0614 173.009 9.17716 168.639 9.17716C163.57 9.17716 158.413 12.6732 153.169 19.6653C151.072 22.9866 149.236 26.4826 147.663 30.1535V127.169L163.395 131.102V135.035H89.9781V131.102L105.71 127.169V43.2637C105.71 31.9015 103.962 23.4236 100.466 17.8299C96.9703 12.0614 93.0372 9.17715 88.6671 9.17715C83.5978 9.17715 78.4412 12.6732 73.1971 19.6653C71.0995 22.9866 69.264 26.4826 67.6908 30.1535V127.169L83.423 131.102V135.035H10.0059V131.102Z" fill="#020202"/>
<path d="M235.675 11.7997L222.564 7.86664V3.93359H252.718C261.982 3.93359 269.324 5.85642 274.743 9.70208C280.162 13.5477 284.619 19.054 288.115 26.2209L316.958 86.5279L331.904 48.2461L314.336 11.7997L301.226 7.86665V3.93359L331.379 3.9336C340.644 3.9336 347.985 5.85643 353.404 9.70209C358.823 13.5477 363.281 19.054 366.777 26.2209L395.619 86.5279L423.151 15.7328L403.485 7.86666V3.9336L451.993 3.93361V7.86666L431.017 15.7328L382.509 137.658H374.643L335.837 56.8988L303.848 137.658H295.982L235.675 11.7997Z" fill="#020202"/>
<path d="M10.0059 136.898L25.7381 140.831V256.201L10.0059 260.134V264.067H33.6043C43.9176 264.067 52.046 260.746 57.9892 254.103C60.2617 251.481 62.1845 248.247 63.7577 244.402C66.3798 249.296 69.1766 253.229 72.1483 256.201C80.0144 264.067 89.0167 268 99.1553 268C109.294 268 118.209 265.728 125.9 261.183C133.591 256.813 139.535 250.782 143.73 243.091C146.352 248.16 149.149 252.268 152.121 255.414C160.161 263.805 169.164 268 179.128 268C188.392 268 196.695 266.077 204.037 262.232C211.554 258.386 217.322 253.142 221.342 246.499C225.538 239.857 227.635 232.602 227.635 224.736V140.831L243.368 136.898V132.965H209.281C193.549 132.965 185.683 140.831 185.683 156.563V224.736C185.683 236.098 183.935 244.576 180.439 250.17C176.943 255.939 173.009 258.823 168.639 258.823C163.57 258.823 158.413 255.327 153.169 248.335C151.072 245.013 149.236 241.517 147.663 237.847V140.831L163.395 136.898V132.965H89.9782V136.898L105.71 140.831V224.736C105.71 236.098 103.962 244.576 100.466 250.17C96.9703 255.939 93.0372 258.823 88.6671 258.823C83.5979 258.823 78.4412 255.327 73.1971 248.335C71.0995 245.013 69.264 241.517 67.6908 237.847V140.831L83.4231 136.898V132.965H10.0059V136.898Z" fill="#020202"/>
<path d="M235.675 256.202L222.564 260.135V264.068H252.718C261.982 264.068 269.324 262.145 274.743 258.299C280.162 254.454 284.619 248.947 288.115 241.781L316.958 181.474L331.904 219.755L314.336 256.202L301.226 260.135V264.068H331.379C340.644 264.068 347.985 262.145 353.404 258.299C358.823 254.454 363.281 248.947 366.777 241.781L395.619 181.474L423.151 252.269L403.485 260.135V264.068H451.993V260.135L431.017 252.269L382.509 130.344H374.643L335.837 211.103L303.848 130.344H295.982L235.675 256.202Z" fill="#020202"/>
</svg>
