<svg width="462" height="268" viewBox="0 0 462 268" fill="none" xmlns="http://www.w3.org/2000/svg">
<path d="M10.0059 131.102L25.7381 127.169L25.7381 11.7992L10.0059 7.86613L10.0059 3.93307L33.6042 3.93307C43.9176 3.93307 52.0459 7.25432 57.9892 13.8968C60.2617 16.5189 62.1845 19.7527 63.7577 23.5984C66.3798 18.7039 69.1766 14.7708 72.1483 11.7992C80.0144 3.93306 89.0167 -8.86341e-07 99.1553 0C109.294 8.86341e-07 118.209 2.27244 125.9 6.81732C133.591 11.1874 139.535 17.2181 143.73 24.9094C146.352 19.8401 149.149 15.7323 152.121 12.5858C160.161 4.19528 169.164 6.12034e-06 179.128 6.9914e-06C188.392 7.80133e-06 196.695 1.92284 204.037 5.76851C211.553 9.61417 217.322 14.8583 221.342 21.5008C225.538 28.1433 227.635 35.3976 227.635 43.2637V127.169L243.368 131.102V135.035L209.281 135.035C193.549 135.035 185.683 127.169 185.683 111.437L185.683 43.2637C185.683 31.9015 183.935 23.4236 180.439 17.8299C176.943 12.0614 173.009 9.17716 168.639 9.17716C163.57 9.17716 158.413 12.6732 153.169 19.6653C151.072 22.9866 149.236 26.4826 147.663 30.1535L147.663 127.169L163.395 131.102V135.035H89.9781V131.102L105.71 127.169L105.71 43.2637C105.71 31.9015 103.962 23.4236 100.466 17.8299C96.9703 12.0614 93.0372 9.17715 88.6671 9.17715C83.5978 9.17715 78.4412 12.6732 73.1971 19.6653C71.0995 22.9866 69.264 26.4826 67.6908 30.1535L67.6908 127.169L83.423 131.102V135.035L10.0059 135.035L10.0059 131.102Z" fill="white"/>
<path d="M235.676 11.7992L222.565 7.86614V3.93309L252.719 3.93309C261.983 3.93309 269.325 5.85592 274.744 9.70158C280.163 13.5472 284.62 19.0535 288.116 26.2204L316.959 86.5274L331.905 48.2456L314.337 11.7992L301.227 7.86615V3.93309L331.38 3.9331C340.645 3.9331 347.986 5.85593 353.405 9.70159C358.824 13.5472 363.282 19.0535 366.778 26.2204L395.62 86.5274L423.152 15.7323L403.486 7.86616V3.9331L451.994 3.93311V7.86616L431.018 15.7323L382.51 137.657H374.644L335.838 56.8983L303.849 137.657H295.983L235.676 11.7992Z" fill="white"/>
<path d="M10.0059 136.898L25.7381 140.831V256.201L10.0059 260.134V264.067H33.6043C43.9176 264.067 52.046 260.746 57.9892 254.103C60.2617 251.481 62.1845 248.247 63.7577 244.402C66.3798 249.296 69.1766 253.229 72.1483 256.201C80.0144 264.067 89.0167 268 99.1553 268C109.294 268 118.209 265.728 125.9 261.183C133.591 256.813 139.535 250.782 143.73 243.091C146.352 248.16 149.149 252.268 152.121 255.414C160.161 263.805 169.164 268 179.128 268C188.392 268 196.695 266.077 204.037 262.232C211.554 258.386 217.322 253.142 221.342 246.499C225.538 239.857 227.635 232.602 227.635 224.736V140.831L243.368 136.898V132.965H209.281C193.549 132.965 185.683 140.831 185.683 156.563V224.736C185.683 236.098 183.935 244.576 180.439 250.17C176.943 255.939 173.009 258.823 168.639 258.823C163.57 258.823 158.413 255.327 153.169 248.335C151.072 245.013 149.236 241.517 147.663 237.847V140.831L163.395 136.898V132.965H89.9782V136.898L105.71 140.831V224.736C105.71 236.098 103.962 244.576 100.466 250.17C96.9703 255.939 93.0372 258.823 88.6671 258.823C83.5979 258.823 78.4412 255.327 73.1971 248.335C71.0995 245.013 69.264 241.517 67.6908 237.847V140.831L83.4231 136.898V132.965H10.0059V136.898Z" fill="white"/>
<path d="M235.676 256.201L222.565 260.134V264.067H252.719C261.983 264.067 269.325 262.144 274.744 258.298C280.163 254.453 284.62 248.946 288.116 241.78L316.959 181.473L331.905 219.754L314.337 256.201L301.227 260.134V264.067H331.38C340.645 264.067 347.986 262.144 353.405 258.298C358.824 254.453 363.282 248.946 366.778 241.78L395.62 181.473L423.152 252.268L403.486 260.134V264.067H451.994V260.134L431.018 252.268L382.51 130.343H374.644L335.838 211.102L303.849 130.343H295.983L235.676 256.201Z" fill="white"/>
</svg>
