<svg width="644" height="268" viewBox="0 0 644 268" fill="none" xmlns="http://www.w3.org/2000/svg">
<g clip-path="url(#clip0_40002609_2604)">
<path d="M0.0390625 127.294L11.1889 124.507V42.7413L0.0390625 39.9538V37.1664H16.7638C24.0732 37.1664 29.8339 39.5202 34.0461 44.2279C35.6566 46.0862 37.0194 48.3781 38.1344 51.1037C39.9927 47.6348 41.9749 44.8474 44.0809 42.7413C49.6559 37.1663 56.0361 34.3789 63.2215 34.3789C70.407 34.3789 76.7252 35.9894 82.1763 39.2105C87.6273 42.3077 91.8394 46.5818 94.8127 52.0328C96.671 48.4401 98.6532 45.5287 100.759 43.2988C106.458 37.3522 112.838 34.3789 119.9 34.3789C126.466 34.3789 132.351 35.7416 137.554 38.4672C142.881 41.1927 146.969 44.9093 149.819 49.617C152.792 54.3247 154.279 59.466 154.279 65.041V124.507L165.428 127.294V130.082H141.27C130.121 130.082 124.546 124.507 124.546 113.357V65.041C124.546 56.9883 123.307 50.9798 120.829 47.0154C118.351 42.9271 115.564 40.883 112.467 40.883C108.874 40.883 105.219 43.3607 101.503 48.3162C100.016 50.67 98.7152 53.1478 97.6002 55.7494V124.507L108.75 127.294V130.082H56.7174V127.294L67.8673 124.507V65.041C67.8673 56.9883 66.6284 50.9798 64.1507 47.0154C61.6729 42.9271 58.8855 40.883 55.7883 40.883C52.1956 40.883 48.5409 43.3607 44.8243 48.3162C43.3376 50.67 42.0368 53.1478 40.9218 55.7494V124.507L52.0717 127.294V130.082H0.0390625V127.294Z" fill="#020202"/>
<path d="M201.702 132.869C190.676 132.869 182.189 130.515 176.243 125.807C170.296 121.1 167.323 115.091 167.323 107.782C167.323 102.95 168.376 98.1808 170.482 93.4731C171.349 91.2431 172.464 89.199 173.827 87.3407C178.906 86.1018 184.419 84.9868 190.366 83.9957C203.746 81.7657 215.577 80.403 225.86 79.9074V74.3325C225.86 60.581 224.187 51.1037 220.842 45.9004C217.497 40.6971 212.356 38.0955 205.418 38.0955C202.817 38.0955 200.587 38.4052 198.728 39.0247L196.127 39.9538V67.8284L193.711 68.3859C191.729 68.6337 190.056 68.7576 188.694 68.7576C184.481 68.7576 181.074 67.5187 178.473 65.041C175.995 62.4393 174.756 59.0324 174.756 54.8203C174.756 49.1215 177.606 44.2899 183.304 40.3255C189.127 36.3611 197.737 34.3789 209.135 34.3789C218.798 34.3789 227.099 36.1133 234.036 39.5822C241.098 42.9271 246.425 47.6348 250.018 53.7053C253.734 59.6519 255.593 66.5276 255.593 74.3325V124.507L266.742 127.294V130.082H250.018C242.584 130.082 236.824 127.79 232.735 123.206C231.001 121.347 229.638 118.994 228.647 116.144C226.913 119.241 224.869 122.029 222.515 124.507C216.94 130.082 210.002 132.869 201.702 132.869ZM209.135 126.365C213.719 126.365 217.869 123.887 221.586 118.932C222.948 117.073 224.373 114.596 225.86 111.498V84.5532C220.161 84.5532 214.71 84.8629 209.507 85.4823C205.666 85.9779 203.064 86.2876 201.702 86.4115C201.082 87.7743 200.463 89.6326 199.843 91.9864C198.605 96.6941 197.985 101.34 197.985 105.924C197.985 112.861 199.038 118.003 201.144 121.347C203.25 124.692 205.914 126.365 209.135 126.365Z" fill="#020202"/>
<path d="M311.429 132.871C304.491 132.871 298.235 131.446 292.66 128.597C287.209 125.624 282.935 121.783 279.838 117.075C276.741 112.368 275.192 107.412 275.192 102.209V42.7429L264.042 39.9554V37.168H288.2C299.35 37.168 304.925 42.7429 304.925 53.8927V102.209C304.925 110.014 306.288 116.022 309.013 120.234C311.863 124.323 315.146 126.367 318.862 126.367C323.446 126.367 327.596 123.889 331.313 118.934C332.676 117.075 334.1 114.598 335.587 111.5V42.7429L324.437 39.9554V37.168H376.47V39.9554L365.32 42.7429V131.013H363.462C354.418 131.013 347.542 128.535 342.834 123.579C340.728 121.349 339.242 118.872 338.374 116.146C336.64 119.243 334.596 122.031 332.242 124.509C326.667 130.084 319.729 132.871 311.429 132.871Z" fill="#020202"/>
<path d="M376.542 127.294L387.692 124.507V5.57493L376.542 2.78746V0H400.7C411.85 0 417.425 5.57492 417.425 16.7248V124.507L428.575 127.294V130.082H376.542V127.294Z" fill="#020202"/>
<path d="M464.783 132.869C453.757 132.869 445.271 130.515 439.324 125.807C433.377 121.1 430.404 115.091 430.404 107.782C430.404 102.95 431.457 98.1808 433.563 93.4731C434.43 91.2431 435.545 89.199 436.908 87.3407C441.988 86.1018 447.501 84.9868 453.447 83.9957C466.827 81.7657 478.658 80.403 488.941 79.9074V74.3325C488.941 60.581 487.268 51.1037 483.923 45.9004C480.578 40.6971 475.437 38.0955 468.499 38.0955C465.898 38.0955 463.668 38.4052 461.81 39.0247L459.208 39.9538V67.8284L456.792 68.3859C454.81 68.6337 453.137 68.7576 451.775 68.7576C447.563 68.7576 444.156 67.5187 441.554 65.041C439.076 62.4393 437.837 59.0324 437.837 54.8203C437.837 49.1215 440.687 44.2899 446.386 40.3255C452.208 36.3611 460.818 34.3789 472.216 34.3789C481.879 34.3789 490.18 36.1133 497.117 39.5822C504.179 42.9271 509.506 47.6348 513.099 53.7053C516.815 59.6519 518.674 66.5276 518.674 74.3325V124.507L529.824 127.294V130.082H513.099C505.666 130.082 499.905 127.79 495.817 123.206C494.082 121.347 492.719 118.994 491.728 116.144C489.994 119.241 487.95 122.029 485.596 124.507C480.021 130.082 473.083 132.869 464.783 132.869ZM472.216 126.365C476.8 126.365 480.95 123.887 484.667 118.932C486.029 117.073 487.454 114.596 488.941 111.498V84.5532C483.242 84.5532 477.791 84.8629 472.588 85.4823C468.747 85.9779 466.146 86.2876 464.783 86.4115C464.163 87.7743 463.544 89.6326 462.925 91.9864C461.686 96.6941 461.066 101.34 461.066 105.924C461.066 112.861 462.119 118.003 464.225 121.347C466.331 124.692 468.995 126.365 472.216 126.365Z" fill="#020202"/>
<path d="M529.91 127.294L541.06 124.507V5.57493L529.91 2.78746V0H554.068C565.218 0 570.792 5.57492 570.792 16.7248V46.4577C572.651 43.9799 574.571 41.9978 576.553 40.5111C581.88 36.4228 588.013 34.3787 594.95 34.3787C601.888 34.3787 608.083 35.8653 613.534 38.8386C619.108 41.688 623.445 45.4666 626.542 50.1743C629.639 54.882 631.187 59.8375 631.187 65.0408V124.507L642.337 127.294V130.082H618.179C607.029 130.082 601.455 124.507 601.455 113.357V65.0408C601.455 57.2359 600.03 51.2893 597.18 47.201C594.455 42.9888 591.234 40.8828 587.517 40.8828C582.81 40.8828 578.597 43.3605 574.881 48.316C573.27 50.4221 571.907 52.8998 570.792 55.7492V124.507L581.942 127.294V130.082H529.91V127.294Z" fill="#020202"/>
<path d="M412.306 187.35C415.94 187.35 418.872 188.134 421.102 189.703C423.414 191.19 425.066 193.75 426.057 197.385C428.7 194.989 431.591 192.718 434.73 190.571C437.951 188.423 441.007 187.35 443.897 187.35C448.275 187.35 451.578 188.258 453.808 190.075C456.038 191.892 457.525 194.7 458.268 198.499C459.094 202.299 459.507 207.13 459.507 212.994V226.374C459.507 228.191 459.507 229.885 459.507 231.454C459.59 233.023 459.796 234.303 460.127 235.294C460.292 235.707 460.87 236.079 461.861 236.409C462.935 236.74 464.05 236.988 465.206 237.153C466.362 237.235 467.188 237.277 467.684 237.277C467.932 237.607 468.056 238.185 468.056 239.011C468.138 239.837 468.014 240.415 467.684 240.746C465.206 240.58 463.017 240.456 461.118 240.374C459.301 240.209 457.195 240.126 454.799 240.126C452.487 240.126 450.381 240.209 448.481 240.374C446.582 240.456 444.393 240.58 441.915 240.746C441.585 240.415 441.42 239.837 441.42 239.011C441.502 238.185 441.667 237.607 441.915 237.277C442.411 237.277 443.237 237.235 444.393 237.153C445.632 236.988 446.788 236.74 447.862 236.409C448.935 236.079 449.514 235.707 449.596 235.294C449.844 234.468 449.968 233.436 449.968 232.197C450.05 230.876 450.092 229.43 450.092 227.861C450.092 227.613 450.092 227.366 450.092 227.118C450.092 226.87 450.092 226.622 450.092 226.374V213.366C450.092 209.319 449.803 205.892 449.224 203.083C448.729 200.275 447.697 198.128 446.127 196.641C444.558 195.155 442.122 194.411 438.818 194.411C436.836 194.411 434.936 194.948 433.119 196.022C431.302 197.013 429.815 198.087 428.659 199.243C427.503 200.317 426.925 201.019 426.925 201.349C426.925 201.432 426.925 201.679 426.925 202.092C427.007 202.423 427.048 202.67 427.048 202.836C427.214 203.992 427.337 205.437 427.42 207.172C427.503 208.906 427.544 210.351 427.544 211.508V226.374C427.544 228.191 427.544 229.885 427.544 231.454C427.627 233.023 427.833 234.303 428.163 235.294C428.329 235.707 428.907 236.079 429.898 236.409C430.972 236.74 432.087 236.988 433.243 237.153C434.399 237.235 435.225 237.277 435.721 237.277C435.968 237.607 436.092 238.185 436.092 239.011C436.175 239.837 436.051 240.415 435.721 240.746C433.243 240.58 431.054 240.456 429.155 240.374C427.338 240.209 425.231 240.126 422.836 240.126C420.524 240.126 418.418 240.209 416.518 240.374C414.618 240.456 412.43 240.58 409.952 240.746C409.621 240.415 409.456 239.837 409.456 239.011C409.539 238.185 409.704 237.607 409.952 237.277C410.447 237.277 411.273 237.235 412.43 237.153C413.668 236.988 414.825 236.74 415.898 236.409C416.972 236.079 417.55 235.707 417.633 235.294C417.963 234.303 418.128 233.023 418.128 231.454C418.211 229.885 418.252 228.191 418.252 226.374V213.986C418.252 206.635 417.426 201.555 415.775 198.747C414.205 195.857 411.232 194.411 406.855 194.411C405.038 194.411 403.262 194.865 401.527 195.774C399.793 196.682 398.348 197.674 397.191 198.747C396.118 199.738 395.581 200.523 395.581 201.101V226.374C395.581 228.191 395.581 229.885 395.581 231.454C395.663 233.023 395.87 234.303 396.2 235.294C396.365 235.707 396.943 236.079 397.935 236.409C399.008 236.74 400.123 236.988 401.28 237.153C402.436 237.235 403.262 237.277 403.757 237.277C404.005 237.607 404.129 238.185 404.129 239.011C404.212 239.837 404.088 240.415 403.757 240.746C401.28 240.58 399.091 240.456 397.191 240.374C395.374 240.209 393.268 240.126 390.873 240.126C388.56 240.126 386.454 240.209 384.555 240.374C382.655 240.456 380.466 240.58 377.989 240.746C377.658 240.415 377.493 239.837 377.493 239.011C377.576 238.185 377.741 237.607 377.989 237.277C378.484 237.277 379.31 237.235 380.466 237.153C381.705 236.988 382.861 236.74 383.935 236.409C385.009 236.079 385.587 235.707 385.67 235.294C386 234.303 386.165 233.023 386.165 231.454C386.248 229.885 386.289 228.191 386.289 226.374V204.322C386.289 203.496 386.248 202.34 386.165 200.853C386.165 199.367 386 198.252 385.67 197.508C385.422 196.765 384.72 196.27 383.564 196.022C382.407 195.691 381.251 195.526 380.095 195.526C378.938 195.444 378.195 195.402 377.865 195.402C377.782 195.237 377.699 194.742 377.617 193.916C377.534 193.09 377.617 192.512 377.865 192.181C381.003 191.768 384.059 191.149 387.032 190.323C390.006 189.497 392.69 188.423 395.085 187.102C395.416 187.102 395.705 187.35 395.952 187.845C396.283 188.341 396.448 188.754 396.448 189.084C396.448 189.332 396.365 189.91 396.2 190.818C396.118 191.727 395.994 192.635 395.828 193.544C395.746 194.452 395.705 195.072 395.705 195.402C395.705 195.733 395.787 195.898 395.952 195.898C396.035 195.898 396.159 195.815 396.324 195.65C397.315 194.742 398.637 193.668 400.288 192.429C401.94 191.107 403.799 189.951 405.863 188.96C408.011 187.886 410.158 187.35 412.306 187.35Z" fill="#020202"/>
<path d="M476.825 188.959C479.138 188.959 481.451 188.876 483.763 188.711C486.158 188.546 487.893 188.422 488.967 188.34C489.132 188.67 489.173 189.331 489.09 190.322C489.008 191.313 488.801 191.809 488.471 191.809C488.223 191.809 487.604 191.85 486.613 191.932C485.622 192.015 484.672 192.221 483.763 192.552C482.937 192.8 482.524 193.254 482.524 193.915C482.524 194.08 482.566 194.245 482.648 194.41L495.533 227.117C495.533 227.117 495.863 226.25 496.524 224.515C497.185 222.698 498.052 220.427 499.125 217.701C500.199 214.893 501.355 211.878 502.594 208.657C503.833 205.436 505.031 202.422 506.187 199.613C506.517 198.87 506.724 198.168 506.807 197.507C506.889 196.764 506.93 196.186 506.93 195.773C506.93 194.534 506.27 193.584 504.948 192.924C503.709 192.18 502.057 191.809 499.993 191.809C499.662 191.809 499.497 191.313 499.497 190.322C499.497 189.331 499.662 188.67 499.993 188.34C500.901 188.422 502.305 188.546 504.205 188.711C506.187 188.876 508.417 188.959 510.895 188.959C513.207 188.959 515.148 188.876 516.718 188.711C518.369 188.546 519.815 188.422 521.054 188.34C521.302 188.67 521.343 189.331 521.178 190.322C521.095 191.313 520.93 191.809 520.682 191.809C520.352 191.809 519.65 191.932 518.576 192.18C517.585 192.428 516.511 192.841 515.355 193.419C514.281 193.997 513.497 194.864 513.001 196.021C511.184 200.316 509.532 204.197 508.045 207.666C506.641 211.135 505.237 214.521 503.833 217.825C502.512 221.046 501.108 224.433 499.621 227.984C498.217 231.453 496.648 235.335 494.913 239.63C493.427 243.346 491.981 247.063 490.577 250.779C489.173 254.496 487.397 257.965 485.25 261.186C483.928 263.251 482.318 264.903 480.418 266.142C478.601 267.381 476.702 268 474.719 268C473.563 268 472.407 267.67 471.251 267.009C470.094 266.348 469.516 264.944 469.516 262.797C469.516 262.053 469.64 261.351 469.888 260.691C470.218 260.03 470.548 259.534 470.879 259.204C472.778 259.204 474.43 259.08 475.834 258.832C477.321 258.667 478.725 258.089 480.047 257.098C481.451 256.107 482.979 254.537 484.63 252.39C485.291 251.482 486.035 250.119 486.86 248.302C487.686 246.567 488.43 244.874 489.09 243.222C489.834 241.57 490.247 240.538 490.329 240.125C488.099 234.344 485.993 228.975 484.011 224.02C482.029 218.981 480.005 214.067 477.941 209.277C475.958 204.404 473.77 199.407 471.374 194.286C470.796 193.047 469.764 192.345 468.277 192.18C466.791 191.932 465.676 191.809 464.932 191.809C464.767 191.809 464.684 191.809 464.684 191.809C464.602 191.809 464.561 191.272 464.561 190.198C464.561 189.042 464.602 188.422 464.684 188.34C465.841 188.422 467.534 188.546 469.764 188.711C471.994 188.876 474.348 188.959 476.825 188.959Z" fill="#020202"/>
<path d="M533.072 214.604C533.65 213.035 534.806 212.87 536.541 214.108L547.443 221.666C548.682 222.492 548.806 224.143 547.815 226.621L542.983 238.143C542.074 240.29 540.505 240.497 538.275 238.762L528.984 231.701C527.414 230.462 526.919 229.182 527.497 227.86L533.072 214.604Z" fill="#020202"/>
<path d="M564.712 168.64C564.712 166.988 565.29 165.584 566.446 164.428C567.685 163.189 569.131 162.57 570.782 162.57C572.434 162.57 573.838 163.189 574.995 164.428C576.234 165.584 576.853 166.988 576.853 168.64C576.853 170.292 576.234 171.738 574.995 172.976C573.838 174.133 572.434 174.711 570.782 174.711C569.131 174.711 567.685 174.133 566.446 172.976C565.29 171.738 564.712 170.292 564.712 168.64ZM576.357 226.372C576.357 228.189 576.357 229.883 576.357 231.452C576.44 233.021 576.647 234.301 576.977 235.292C577.142 235.705 577.72 236.077 578.711 236.407C579.785 236.738 580.9 236.986 582.056 237.151C583.213 237.233 584.039 237.275 584.534 237.275C584.782 237.605 584.906 238.183 584.906 239.009C584.988 239.835 584.864 240.413 584.534 240.744C582.056 240.578 579.868 240.454 577.968 240.372C576.151 240.207 574.045 240.124 571.65 240.124C569.337 240.124 567.231 240.207 565.331 240.372C563.432 240.454 561.243 240.578 558.765 240.744C558.435 240.413 558.27 239.835 558.27 239.009C558.352 238.183 558.517 237.605 558.765 237.275C559.261 237.275 560.087 237.233 561.243 237.151C562.482 236.986 563.638 236.738 564.712 236.407C565.786 236.077 566.364 235.705 566.446 235.292C566.777 234.301 566.942 233.021 566.942 231.452C567.024 229.883 567.066 228.189 567.066 226.372V203.825C567.066 202.999 567.024 201.925 566.942 200.604C566.942 199.282 566.777 198.25 566.446 197.506C566.199 196.763 565.497 196.268 564.34 196.02C563.184 195.689 562.028 195.524 560.871 195.524C559.715 195.442 558.972 195.4 558.641 195.4C558.559 195.235 558.476 194.74 558.394 193.914C558.311 193.088 558.394 192.51 558.641 192.179C561.78 191.766 564.836 191.147 567.809 190.321C570.782 189.495 573.467 188.421 575.862 187.1C576.192 187.1 576.481 187.348 576.729 187.843C577.059 188.339 577.225 188.752 577.225 189.082C577.225 189.33 577.142 190.032 576.977 191.188C576.812 192.344 576.646 193.501 576.481 194.657C576.399 195.813 576.357 196.598 576.357 197.011V226.372Z" fill="#020202"/>
<path d="M617.45 187.348C618.771 187.348 620.34 187.513 622.157 187.843C623.975 188.091 625.172 188.339 625.75 188.586C626.163 188.586 626.37 187.76 626.37 186.109V172.853C626.37 171.944 626.328 170.87 626.246 169.631C626.246 168.31 626.081 167.278 625.75 166.534C625.42 165.626 624.511 165.048 623.025 164.8C621.538 164.552 619.969 164.428 618.317 164.428C618.234 164.428 618.152 163.933 618.069 162.941C618.069 161.868 618.193 161.29 618.441 161.207C621.497 160.877 624.47 160.299 627.361 159.473C630.334 158.564 633.101 157.532 635.661 156.375C635.992 156.375 636.281 156.623 636.529 157.119C636.859 157.532 637.024 157.945 637.024 158.358C637.024 158.358 636.776 159.266 636.281 161.083C635.868 162.9 635.661 165.502 635.661 168.888V220.674C635.661 222.986 635.703 225.34 635.785 227.735C635.95 230.048 636.198 231.658 636.529 232.567C636.942 233.475 637.891 234.054 639.378 234.301C640.947 234.466 642.145 234.59 642.971 234.673C643.301 234.673 643.508 234.673 643.59 234.673C643.755 234.756 643.838 235.003 643.838 235.416C643.921 235.747 643.962 235.994 643.962 236.16C643.962 236.242 643.879 236.573 643.714 237.151C643.632 237.646 643.425 237.894 643.095 237.894C641.03 237.977 638.759 238.307 636.281 238.885C633.886 239.463 631.821 240 630.086 240.496C628.352 241.074 627.443 241.363 627.361 241.363C627.03 241.363 626.783 241.074 626.617 240.496C626.452 239.918 626.37 239.422 626.37 239.009V234.797C626.37 234.054 626.246 233.806 625.998 234.054C625.42 234.714 624.181 235.623 622.281 236.779C620.464 237.935 618.441 239.009 616.211 240C613.981 240.909 611.875 241.363 609.893 241.363C606.258 241.363 602.79 240.248 599.486 238.018C596.265 235.705 593.622 232.608 591.557 228.726C589.575 224.762 588.584 220.343 588.584 215.47C588.584 211.506 589.533 207.83 591.433 204.444C593.415 200.975 595.893 198.002 598.866 195.524C601.922 192.964 605.102 190.982 608.406 189.578C611.71 188.091 614.724 187.348 617.45 187.348ZM613.485 192.427C610.429 192.427 607.786 193.418 605.556 195.4C603.409 197.3 601.716 199.778 600.477 202.834C599.321 205.89 598.743 209.111 598.743 212.497C598.743 216.296 599.403 219.806 600.725 223.027C602.046 226.249 603.987 228.85 606.548 230.832C609.108 232.815 612.205 233.806 615.839 233.806C618.565 233.806 621.001 233.269 623.149 232.195C625.296 231.039 626.37 229.965 626.37 228.974V198.374C626.37 196.97 625.048 195.648 622.405 194.409C619.845 193.088 616.872 192.427 613.485 192.427Z" fill="#020202"/>
</g>
<defs>
<clipPath id="clip0_40002609_2604">
<rect width="644" height="268" fill="white"/>
</clipPath>
</defs>
</svg>
