<svg width="644" height="268" viewBox="0 0 644 268" fill="none" xmlns="http://www.w3.org/2000/svg">
<path d="M0.0390625 127.294L11.1889 124.507V42.7411L0.0390625 39.9536V37.1662H16.7638C24.0732 37.1662 29.8339 39.52 34.0461 44.2277C35.6566 46.086 37.0194 48.3779 38.1344 51.1035C39.9927 47.6346 41.9749 44.8472 44.0809 42.7411C49.6559 37.1661 56.0361 34.3787 63.2215 34.3787C70.407 34.3787 76.7252 35.9892 82.1763 39.2103C87.6273 42.3075 91.8394 46.5816 94.8127 52.0326C96.671 48.4399 98.6532 45.5285 100.759 43.2986C106.458 37.352 112.838 34.3787 119.9 34.3787C126.466 34.3787 132.351 35.7414 137.554 38.467C142.881 41.1925 146.969 44.9091 149.819 49.6168C152.792 54.3245 154.279 59.4658 154.279 65.0408V124.507L165.428 127.294V130.082H141.27C130.121 130.082 124.546 124.507 124.546 113.357V65.0408C124.546 56.9881 123.307 50.9796 120.829 47.0152C118.351 42.9269 115.564 40.8828 112.467 40.8828C108.874 40.8828 105.219 43.3605 101.503 48.316C100.016 50.6698 98.7152 53.1476 97.6002 55.7492V124.507L108.75 127.294V130.082H56.7174V127.294L67.8673 124.507V65.0408C67.8673 56.9881 66.6284 50.9796 64.1507 47.0152C61.6729 42.9269 58.8855 40.8828 55.7883 40.8828C52.1956 40.8828 48.5409 43.3605 44.8243 48.316C43.3376 50.6698 42.0368 53.1476 40.9218 55.7492V124.507L52.0717 127.294V130.082H0.0390625V127.294Z" fill="white"/>
<path d="M201.702 132.869C190.676 132.869 182.189 130.515 176.243 125.807C170.296 121.1 167.323 115.091 167.323 107.782C167.323 102.95 168.376 98.1806 170.482 93.4729C171.349 91.2429 172.464 89.1988 173.827 87.3405C178.906 86.1016 184.419 84.9866 190.366 83.9955C203.746 81.7655 215.577 80.4028 225.86 79.9072V74.3323C225.86 60.5808 224.187 51.1035 220.842 45.9002C217.497 40.6969 212.356 38.0953 205.418 38.0953C202.817 38.0953 200.587 38.405 198.728 39.0245L196.127 39.9536V67.8282L193.711 68.3857C191.729 68.6335 190.056 68.7574 188.694 68.7574C184.481 68.7574 181.074 67.5185 178.473 65.0408C175.995 62.4391 174.756 59.0322 174.756 54.8201C174.756 49.1213 177.606 44.2897 183.304 40.3253C189.127 36.3609 197.737 34.3787 209.135 34.3787C218.798 34.3787 227.099 36.1131 234.036 39.582C241.098 42.9269 246.425 47.6346 250.018 53.7051C253.734 59.6517 255.593 66.5274 255.593 74.3323V124.507L266.742 127.294V130.082H250.018C242.584 130.082 236.824 127.79 232.735 123.206C231.001 121.347 229.638 118.994 228.647 116.144C226.913 119.241 224.869 122.029 222.515 124.507C216.94 130.082 210.002 132.869 201.702 132.869ZM209.135 126.365C213.719 126.365 217.869 123.887 221.586 118.932C222.948 117.073 224.373 114.596 225.86 111.498V84.553C220.161 84.553 214.71 84.8627 209.507 85.4821C205.666 85.9777 203.064 86.2874 201.702 86.4113C201.082 87.7741 200.463 89.6324 199.843 91.9862C198.605 96.6939 197.985 101.34 197.985 105.924C197.985 112.861 199.038 118.003 201.144 121.347C203.25 124.692 205.914 126.365 209.135 126.365Z" fill="white"/>
<path d="M311.429 132.869C304.491 132.869 298.235 131.444 292.66 128.595C287.209 125.622 282.935 121.781 279.838 117.073C276.741 112.366 275.192 107.41 275.192 102.207V42.7411L264.042 39.9536V37.1662H288.2C299.35 37.1662 304.925 42.7411 304.925 53.8909V102.207C304.925 110.012 306.288 116.02 309.013 120.232C311.863 124.321 315.146 126.365 318.862 126.365C323.446 126.365 327.596 123.887 331.313 118.932C332.676 117.073 334.1 114.596 335.587 111.498V42.7411L324.437 39.9536V37.1662H376.47V39.9536L365.32 42.7411V131.011H363.462C354.418 131.011 347.542 128.533 342.834 123.577C340.728 121.347 339.242 118.87 338.374 116.144C336.64 119.241 334.596 122.029 332.242 124.507C326.667 130.082 319.729 132.869 311.429 132.869Z" fill="white"/>
<path d="M376.542 127.294L387.692 124.507V5.57493L376.542 2.78746V0H400.7C411.85 0 417.425 5.57492 417.425 16.7248V124.507L428.575 127.294V130.082H376.542V127.294Z" fill="white"/>
<path d="M464.783 132.869C453.757 132.869 445.271 130.515 439.324 125.807C433.377 121.1 430.404 115.091 430.404 107.782C430.404 102.95 431.457 98.1806 433.563 93.4729C434.43 91.2429 435.545 89.1988 436.908 87.3405C441.988 86.1016 447.501 84.9866 453.447 83.9955C466.827 81.7655 478.658 80.4028 488.941 79.9072V74.3323C488.941 60.5808 487.268 51.1035 483.923 45.9002C480.578 40.6969 475.437 38.0953 468.499 38.0953C465.898 38.0953 463.668 38.405 461.81 39.0245L459.208 39.9536V67.8282L456.792 68.3857C454.81 68.6335 453.137 68.7574 451.775 68.7574C447.563 68.7574 444.156 67.5185 441.554 65.0408C439.076 62.4391 437.837 59.0322 437.837 54.8201C437.837 49.1213 440.687 44.2897 446.386 40.3253C452.208 36.3609 460.818 34.3787 472.216 34.3787C481.879 34.3787 490.18 36.1131 497.117 39.582C504.179 42.9269 509.506 47.6346 513.099 53.7051C516.815 59.6517 518.674 66.5274 518.674 74.3323V124.507L529.824 127.294V130.082H513.099C505.666 130.082 499.905 127.79 495.817 123.206C494.082 121.347 492.719 118.994 491.728 116.144C489.994 119.241 487.95 122.029 485.596 124.507C480.021 130.082 473.083 132.869 464.783 132.869ZM472.216 126.365C476.8 126.365 480.95 123.887 484.667 118.932C486.029 117.073 487.454 114.596 488.941 111.498V84.553C483.242 84.553 477.791 84.8627 472.588 85.4821C468.747 85.9777 466.146 86.2874 464.783 86.4113C464.163 87.7741 463.544 89.6324 462.925 91.9862C461.686 96.6939 461.066 101.34 461.066 105.924C461.066 112.861 462.119 118.003 464.225 121.347C466.331 124.692 468.995 126.365 472.216 126.365Z" fill="white"/>
<path d="M529.911 127.294L541.061 124.507V5.57493L529.911 2.78746V0H554.069C565.219 0 570.793 5.57492 570.793 16.7248V46.4577C572.652 43.9799 574.572 41.9978 576.554 40.5111C581.881 36.4228 588.014 34.3787 594.951 34.3787C601.889 34.3787 608.084 35.8653 613.535 38.8386C619.109 41.688 623.446 45.4666 626.543 50.1743C629.64 54.882 631.188 59.8375 631.188 65.0408V124.507L642.338 127.294V130.082H618.18C607.03 130.082 601.456 124.507 601.456 113.357V65.0408C601.456 57.2359 600.031 51.2893 597.181 47.201C594.456 42.9888 591.235 40.8828 587.518 40.8828C582.811 40.8828 578.598 43.3605 574.882 48.316C573.271 50.4221 571.908 52.8998 570.793 55.7492V124.507L581.943 127.294V130.082H529.911V127.294Z" fill="white"/>
<path d="M412.306 187.349C415.94 187.349 418.872 188.133 421.102 189.702C423.414 191.189 425.066 193.749 426.057 197.384C428.7 194.988 431.591 192.717 434.73 190.57C437.951 188.422 441.007 187.349 443.897 187.349C448.275 187.349 451.578 188.257 453.808 190.074C456.038 191.891 457.525 194.699 458.268 198.498C459.094 202.298 459.507 207.129 459.507 212.993V226.373C459.507 228.19 459.507 229.884 459.507 231.453C459.59 233.022 459.796 234.302 460.127 235.293C460.292 235.706 460.87 236.078 461.861 236.408C462.935 236.739 464.05 236.987 465.206 237.152C466.362 237.234 467.188 237.276 467.684 237.276C467.932 237.606 468.056 238.184 468.056 239.01C468.138 239.836 468.014 240.414 467.684 240.745C465.206 240.579 463.017 240.455 461.118 240.373C459.301 240.208 457.195 240.125 454.799 240.125C452.487 240.125 450.381 240.208 448.481 240.373C446.582 240.455 444.393 240.579 441.915 240.745C441.585 240.414 441.42 239.836 441.42 239.01C441.502 238.184 441.667 237.606 441.915 237.276C442.411 237.276 443.237 237.234 444.393 237.152C445.632 236.987 446.788 236.739 447.862 236.408C448.935 236.078 449.514 235.706 449.596 235.293C449.844 234.467 449.968 233.435 449.968 232.196C450.05 230.875 450.092 229.429 450.092 227.86C450.092 227.612 450.092 227.365 450.092 227.117C450.092 226.869 450.092 226.621 450.092 226.373V213.365C450.092 209.318 449.803 205.891 449.224 203.082C448.729 200.274 447.697 198.127 446.127 196.64C444.558 195.154 442.122 194.41 438.818 194.41C436.836 194.41 434.936 194.947 433.119 196.021C431.302 197.012 429.815 198.086 428.659 199.242C427.503 200.316 426.925 201.018 426.925 201.348C426.925 201.431 426.925 201.678 426.925 202.091C427.007 202.422 427.048 202.669 427.048 202.835C427.214 203.991 427.337 205.436 427.42 207.171C427.503 208.905 427.544 210.35 427.544 211.507V226.373C427.544 228.19 427.544 229.884 427.544 231.453C427.627 233.022 427.833 234.302 428.163 235.293C428.329 235.706 428.907 236.078 429.898 236.408C430.972 236.739 432.087 236.987 433.243 237.152C434.399 237.234 435.225 237.276 435.721 237.276C435.968 237.606 436.092 238.184 436.092 239.01C436.175 239.836 436.051 240.414 435.721 240.745C433.243 240.579 431.054 240.455 429.155 240.373C427.338 240.208 425.231 240.125 422.836 240.125C420.524 240.125 418.418 240.208 416.518 240.373C414.618 240.455 412.43 240.579 409.952 240.745C409.621 240.414 409.456 239.836 409.456 239.01C409.539 238.184 409.704 237.606 409.952 237.276C410.447 237.276 411.273 237.234 412.43 237.152C413.668 236.987 414.825 236.739 415.898 236.408C416.972 236.078 417.55 235.706 417.633 235.293C417.963 234.302 418.128 233.022 418.128 231.453C418.211 229.884 418.252 228.19 418.252 226.373V213.985C418.252 206.634 417.426 201.554 415.775 198.746C414.205 195.856 411.232 194.41 406.855 194.41C405.038 194.41 403.262 194.864 401.527 195.773C399.793 196.681 398.348 197.673 397.191 198.746C396.118 199.737 395.581 200.522 395.581 201.1V226.373C395.581 228.19 395.581 229.884 395.581 231.453C395.663 233.022 395.87 234.302 396.2 235.293C396.365 235.706 396.943 236.078 397.935 236.408C399.008 236.739 400.123 236.987 401.28 237.152C402.436 237.234 403.262 237.276 403.757 237.276C404.005 237.606 404.129 238.184 404.129 239.01C404.212 239.836 404.088 240.414 403.757 240.745C401.28 240.579 399.091 240.455 397.191 240.373C395.374 240.208 393.268 240.125 390.873 240.125C388.56 240.125 386.454 240.208 384.555 240.373C382.655 240.455 380.466 240.579 377.989 240.745C377.658 240.414 377.493 239.836 377.493 239.01C377.576 238.184 377.741 237.606 377.989 237.276C378.484 237.276 379.31 237.234 380.466 237.152C381.705 236.987 382.861 236.739 383.935 236.408C385.009 236.078 385.587 235.706 385.67 235.293C386 234.302 386.165 233.022 386.165 231.453C386.248 229.884 386.289 228.19 386.289 226.373V204.321C386.289 203.495 386.248 202.339 386.165 200.852C386.165 199.366 386 198.251 385.67 197.507C385.422 196.764 384.72 196.269 383.564 196.021C382.407 195.69 381.251 195.525 380.095 195.525C378.938 195.443 378.195 195.401 377.865 195.401C377.782 195.236 377.699 194.741 377.617 193.915C377.534 193.089 377.617 192.511 377.865 192.18C381.003 191.767 384.059 191.148 387.032 190.322C390.006 189.496 392.69 188.422 395.085 187.101C395.416 187.101 395.705 187.349 395.952 187.844C396.283 188.34 396.448 188.753 396.448 189.083C396.448 189.331 396.365 189.909 396.2 190.817C396.118 191.726 395.994 192.634 395.828 193.543C395.746 194.451 395.705 195.071 395.705 195.401C395.705 195.732 395.787 195.897 395.952 195.897C396.035 195.897 396.159 195.814 396.324 195.649C397.315 194.741 398.637 193.667 400.288 192.428C401.94 191.106 403.799 189.95 405.863 188.959C408.011 187.885 410.158 187.349 412.306 187.349Z" fill="white"/>
<path d="M476.825 188.959C479.138 188.959 481.451 188.876 483.763 188.711C486.158 188.546 487.893 188.422 488.967 188.34C489.132 188.67 489.173 189.331 489.09 190.322C489.008 191.313 488.801 191.809 488.471 191.809C488.223 191.809 487.604 191.85 486.613 191.932C485.622 192.015 484.672 192.221 483.763 192.552C482.937 192.8 482.524 193.254 482.524 193.915C482.524 194.08 482.566 194.245 482.648 194.41L495.533 227.117C495.533 227.117 495.863 226.25 496.524 224.515C497.185 222.698 498.052 220.427 499.125 217.701C500.199 214.893 501.355 211.878 502.594 208.657C503.833 205.436 505.031 202.422 506.187 199.613C506.517 198.87 506.724 198.168 506.807 197.507C506.889 196.764 506.93 196.186 506.93 195.773C506.93 194.534 506.27 193.584 504.948 192.924C503.709 192.18 502.057 191.809 499.993 191.809C499.662 191.809 499.497 191.313 499.497 190.322C499.497 189.331 499.662 188.67 499.993 188.34C500.901 188.422 502.305 188.546 504.205 188.711C506.187 188.876 508.417 188.959 510.895 188.959C513.207 188.959 515.148 188.876 516.718 188.711C518.369 188.546 519.815 188.422 521.054 188.34C521.302 188.67 521.343 189.331 521.178 190.322C521.095 191.313 520.93 191.809 520.682 191.809C520.352 191.809 519.65 191.932 518.576 192.18C517.585 192.428 516.511 192.841 515.355 193.419C514.281 193.997 513.497 194.864 513.001 196.021C511.184 200.316 509.532 204.197 508.045 207.666C506.641 211.135 505.237 214.521 503.833 217.825C502.512 221.046 501.108 224.433 499.621 227.984C498.217 231.453 496.648 235.335 494.913 239.63C493.427 243.346 491.981 247.063 490.577 250.779C489.173 254.496 487.397 257.965 485.25 261.186C483.928 263.251 482.318 264.903 480.418 266.142C478.601 267.381 476.702 268 474.719 268C473.563 268 472.407 267.67 471.251 267.009C470.094 266.348 469.516 264.944 469.516 262.797C469.516 262.053 469.64 261.351 469.888 260.691C470.218 260.03 470.548 259.534 470.879 259.204C472.778 259.204 474.43 259.08 475.834 258.832C477.321 258.667 478.725 258.089 480.047 257.098C481.451 256.107 482.979 254.537 484.63 252.39C485.291 251.482 486.035 250.119 486.86 248.302C487.686 246.567 488.43 244.874 489.09 243.222C489.834 241.57 490.247 240.538 490.329 240.125C488.099 234.344 485.993 228.975 484.011 224.02C482.029 218.981 480.005 214.067 477.941 209.277C475.958 204.404 473.77 199.407 471.374 194.286C470.796 193.047 469.764 192.345 468.277 192.18C466.791 191.932 465.676 191.809 464.932 191.809C464.767 191.809 464.684 191.809 464.684 191.809C464.602 191.809 464.561 191.272 464.561 190.198C464.561 189.042 464.602 188.422 464.684 188.34C465.841 188.422 467.534 188.546 469.764 188.711C471.994 188.876 474.348 188.959 476.825 188.959Z" fill="white"/>
<path d="M533.072 214.604C533.65 213.035 534.806 212.87 536.541 214.108L547.443 221.666C548.682 222.492 548.806 224.143 547.815 226.621L542.983 238.143C542.074 240.29 540.505 240.497 538.275 238.762L528.984 231.701C527.414 230.462 526.919 229.182 527.497 227.86L533.072 214.604Z" fill="white"/>
<path d="M564.711 168.641C564.711 166.989 565.289 165.585 566.445 164.429C567.684 163.19 569.13 162.571 570.781 162.571C572.433 162.571 573.837 163.19 574.994 164.429C576.233 165.585 576.852 166.989 576.852 168.641C576.852 170.293 576.233 171.739 574.994 172.977C573.837 174.134 572.433 174.712 570.781 174.712C569.13 174.712 567.684 174.134 566.445 172.977C565.289 171.739 564.711 170.293 564.711 168.641ZM576.356 226.373C576.356 228.19 576.356 229.884 576.356 231.453C576.439 233.022 576.646 234.302 576.976 235.293C577.141 235.706 577.719 236.078 578.71 236.408C579.784 236.739 580.899 236.987 582.055 237.152C583.212 237.234 584.038 237.276 584.533 237.276C584.781 237.606 584.905 238.184 584.905 239.01C584.987 239.836 584.863 240.414 584.533 240.745C582.055 240.579 579.867 240.455 577.967 240.373C576.15 240.208 574.044 240.125 571.649 240.125C569.336 240.125 567.23 240.208 565.33 240.373C563.431 240.455 561.242 240.579 558.764 240.745C558.434 240.414 558.269 239.836 558.269 239.01C558.351 238.184 558.516 237.606 558.764 237.276C559.26 237.276 560.086 237.234 561.242 237.152C562.481 236.987 563.637 236.739 564.711 236.408C565.785 236.078 566.363 235.706 566.445 235.293C566.776 234.302 566.941 233.022 566.941 231.453C567.023 229.884 567.065 228.19 567.065 226.373V203.826C567.065 203 567.023 201.926 566.941 200.605C566.941 199.283 566.776 198.251 566.445 197.507C566.198 196.764 565.496 196.269 564.339 196.021C563.183 195.69 562.027 195.525 560.87 195.525C559.714 195.443 558.971 195.401 558.64 195.401C558.558 195.236 558.475 194.741 558.393 193.915C558.31 193.089 558.393 192.511 558.64 192.18C561.779 191.767 564.835 191.148 567.808 190.322C570.781 189.496 573.466 188.422 575.861 187.101C576.191 187.101 576.48 187.349 576.728 187.844C577.058 188.34 577.224 188.753 577.224 189.083C577.224 189.331 577.141 190.033 576.976 191.189C576.811 192.345 576.645 193.502 576.48 194.658C576.398 195.814 576.356 196.599 576.356 197.012V226.373Z" fill="white"/>
<path d="M617.45 187.349C618.771 187.349 620.34 187.514 622.157 187.844C623.975 188.092 625.172 188.34 625.75 188.587C626.163 188.587 626.37 187.761 626.37 186.11V172.854C626.37 171.945 626.328 170.871 626.246 169.632C626.246 168.311 626.081 167.279 625.75 166.535C625.42 165.627 624.511 165.049 623.025 164.801C621.538 164.553 619.969 164.429 618.317 164.429C618.234 164.429 618.152 163.934 618.069 162.942C618.069 161.869 618.193 161.291 618.441 161.208C621.497 160.878 624.47 160.3 627.361 159.474C630.334 158.565 633.101 157.533 635.661 156.376C635.992 156.376 636.281 156.624 636.529 157.12C636.859 157.533 637.024 157.946 637.024 158.359C637.024 158.359 636.776 159.267 636.281 161.084C635.868 162.901 635.661 165.503 635.661 168.889V220.675C635.661 222.987 635.703 225.341 635.785 227.736C635.95 230.049 636.198 231.659 636.529 232.568C636.942 233.476 637.891 234.055 639.378 234.302C640.947 234.467 642.145 234.591 642.971 234.674C643.301 234.674 643.508 234.674 643.59 234.674C643.755 234.757 643.838 235.004 643.838 235.417C643.921 235.748 643.962 235.995 643.962 236.161C643.962 236.243 643.879 236.574 643.714 237.152C643.632 237.647 643.425 237.895 643.095 237.895C641.03 237.978 638.759 238.308 636.281 238.886C633.886 239.464 631.821 240.001 630.086 240.497C628.352 241.075 627.443 241.364 627.361 241.364C627.03 241.364 626.783 241.075 626.617 240.497C626.452 239.919 626.37 239.423 626.37 239.01V234.798C626.37 234.055 626.246 233.807 625.998 234.055C625.42 234.715 624.181 235.624 622.281 236.78C620.464 237.936 618.441 239.01 616.211 240.001C613.981 240.91 611.875 241.364 609.893 241.364C606.258 241.364 602.79 240.249 599.486 238.019C596.265 235.706 593.622 232.609 591.557 228.727C589.575 224.763 588.584 220.344 588.584 215.471C588.584 211.507 589.533 207.831 591.433 204.445C593.415 200.976 595.893 198.003 598.866 195.525C601.922 192.965 605.102 190.983 608.406 189.579C611.71 188.092 614.724 187.349 617.45 187.349ZM613.485 192.428C610.429 192.428 607.786 193.419 605.556 195.401C603.409 197.301 601.716 199.779 600.477 202.835C599.321 205.891 598.743 209.112 598.743 212.498C598.743 216.297 599.403 219.807 600.725 223.028C602.046 226.25 603.987 228.851 606.548 230.833C609.108 232.816 612.205 233.807 615.839 233.807C618.565 233.807 621.001 233.27 623.149 232.196C625.296 231.04 626.37 229.966 626.37 228.975V198.375C626.37 196.971 625.048 195.649 622.405 194.41C619.845 193.089 616.872 192.428 613.485 192.428Z" fill="white"/>
</svg>
