<svg width="662" height="733" viewBox="0 0 662 733" fill="none" xmlns="http://www.w3.org/2000/svg">
<path d="M9.03906 592.294L20.1889 589.507V507.741L9.03906 504.954V502.166H25.7638C33.0732 502.166 38.8339 504.52 43.0461 509.228C44.6566 511.086 46.0194 513.378 47.1344 516.103C48.9927 512.635 50.9749 509.847 53.0809 507.741C58.6559 502.166 65.0361 499.379 72.2215 499.379C79.407 499.379 85.7252 500.989 91.1763 504.21C96.6273 507.307 100.839 511.582 103.813 517.033C105.671 513.44 107.653 510.529 109.759 508.299C115.458 502.352 121.838 499.379 128.9 499.379C135.466 499.379 141.351 500.741 146.554 503.467C151.881 506.192 155.969 509.909 158.819 514.617C161.792 519.325 163.279 524.466 163.279 530.041V589.507L174.428 592.294V595.082H150.27C139.121 595.082 133.546 589.507 133.546 578.357V530.041C133.546 521.988 132.307 515.98 129.829 512.015C127.351 507.927 124.564 505.883 121.467 505.883C117.874 505.883 114.219 508.361 110.503 513.316C109.016 515.67 107.715 518.148 106.6 520.749V589.507L117.75 592.294V595.082H65.7174V592.294L76.8673 589.507V530.041C76.8673 521.988 75.6284 515.98 73.1507 512.015C70.6729 507.927 67.8855 505.883 64.7883 505.883C61.1956 505.883 57.5409 508.361 53.8243 513.316C52.3376 515.67 51.0368 518.148 49.9218 520.749V589.507L61.0717 592.294V595.082H9.03906V592.294Z" fill="white"/>
<path d="M210.702 597.869C199.676 597.869 191.189 595.515 185.243 590.807C179.296 586.1 176.323 580.091 176.323 572.782C176.323 567.95 177.376 563.181 179.482 558.473C180.349 556.243 181.464 554.199 182.827 552.34C187.906 551.102 193.419 549.987 199.366 548.996C212.746 546.766 224.577 545.403 234.86 544.907V539.332C234.86 525.581 233.187 516.103 229.842 510.9C226.497 505.697 221.356 503.095 214.418 503.095C211.817 503.095 209.587 503.405 207.728 504.024L205.127 504.954V532.828L202.711 533.386C200.729 533.633 199.056 533.757 197.694 533.757C193.481 533.757 190.074 532.519 187.473 530.041C184.995 527.439 183.756 524.032 183.756 519.82C183.756 514.121 186.606 509.29 192.304 505.325C198.127 501.361 206.737 499.379 218.135 499.379C227.798 499.379 236.099 501.113 243.036 504.582C250.098 507.927 255.425 512.635 259.018 518.705C262.734 524.652 264.593 531.527 264.593 539.332V589.507L275.742 592.294V595.082H259.018C251.584 595.082 245.824 592.79 241.735 588.206C240.001 586.347 238.638 583.994 237.647 581.144C235.913 584.241 233.869 587.029 231.515 589.507C225.94 595.082 219.002 597.869 210.702 597.869ZM218.135 591.365C222.719 591.365 226.869 588.887 230.586 583.932C231.948 582.073 233.373 579.596 234.86 576.498V549.553C229.161 549.553 223.71 549.863 218.507 550.482C214.666 550.978 212.064 551.287 210.702 551.411C210.082 552.774 209.463 554.632 208.843 556.986C207.605 561.694 206.985 566.34 206.985 570.924C206.985 577.861 208.038 583.003 210.144 586.347C212.25 589.692 214.914 591.365 218.135 591.365Z" fill="white"/>
<path d="M320.429 597.869C313.491 597.869 307.235 596.444 301.66 593.595C296.209 590.622 291.935 586.781 288.838 582.073C285.741 577.366 284.192 572.41 284.192 567.207V507.741L273.042 504.954V502.166H297.2C308.35 502.166 313.925 507.741 313.925 518.891V567.207C313.925 575.012 315.288 581.02 318.013 585.232C320.863 589.321 324.146 591.365 327.862 591.365C332.446 591.365 336.596 588.887 340.313 583.932C341.676 582.073 343.1 579.596 344.587 576.498V507.741L333.437 504.954V502.166H385.47V504.954L374.32 507.741V596.011H372.462C363.418 596.011 356.542 593.533 351.834 588.577C349.728 586.347 348.242 583.87 347.374 581.144C345.64 584.241 343.596 587.029 341.242 589.507C335.667 595.082 328.729 597.869 320.429 597.869Z" fill="white"/>
<path d="M385.542 592.294L396.692 589.507V470.575L385.542 467.787V465H409.7C420.85 465 426.425 470.575 426.425 481.725V589.507L437.575 592.294V595.082H385.542V592.294Z" fill="white"/>
<path d="M473.783 597.869C462.757 597.869 454.271 595.515 448.324 590.807C442.377 586.1 439.404 580.091 439.404 572.782C439.404 567.95 440.457 563.181 442.563 558.473C443.43 556.243 444.545 554.199 445.908 552.34C450.988 551.102 456.501 549.987 462.447 548.996C475.827 546.766 487.658 545.403 497.941 544.907V539.332C497.941 525.581 496.268 516.103 492.923 510.9C489.578 505.697 484.437 503.095 477.499 503.095C474.898 503.095 472.668 503.405 470.81 504.024L468.208 504.954V532.828L465.792 533.386C463.81 533.633 462.137 533.757 460.775 533.757C456.563 533.757 453.156 532.519 450.554 530.041C448.076 527.439 446.837 524.032 446.837 519.82C446.837 514.121 449.687 509.29 455.386 505.325C461.208 501.361 469.818 499.379 481.216 499.379C490.879 499.379 499.18 501.113 506.117 504.582C513.179 507.927 518.506 512.635 522.099 518.705C525.815 524.652 527.674 531.527 527.674 539.332V589.507L538.824 592.294V595.082H522.099C514.666 595.082 508.905 592.79 504.817 588.206C503.082 586.347 501.719 583.994 500.728 581.144C498.994 584.241 496.95 587.029 494.596 589.507C489.021 595.082 482.083 597.869 473.783 597.869ZM481.216 591.365C485.8 591.365 489.95 588.887 493.667 583.932C495.029 582.073 496.454 579.596 497.941 576.498V549.553C492.242 549.553 486.791 549.863 481.588 550.482C477.747 550.978 475.146 551.287 473.783 551.411C473.163 552.774 472.544 554.632 471.925 556.986C470.686 561.694 470.066 566.34 470.066 570.924C470.066 577.861 471.119 583.003 473.225 586.347C475.331 589.692 477.995 591.365 481.216 591.365Z" fill="white"/>
<path d="M538.911 592.294L550.061 589.507V470.575L538.911 467.787V465H563.069C574.219 465 579.793 470.575 579.793 481.725V511.458C581.652 508.98 583.572 506.998 585.554 505.511C590.881 501.423 597.014 499.379 603.951 499.379C610.889 499.379 617.084 500.865 622.535 503.839C628.109 506.688 632.446 510.467 635.543 515.174C638.64 519.882 640.188 524.838 640.188 530.041V589.507L651.338 592.294V595.082H627.18C616.03 595.082 610.456 589.507 610.456 578.357V530.041C610.456 522.236 609.031 516.289 606.181 512.201C603.456 507.989 600.235 505.883 596.518 505.883C591.811 505.883 587.598 508.361 583.882 513.316C582.271 515.422 580.908 517.9 579.793 520.749V589.507L590.943 592.294V595.082H538.911V592.294Z" fill="white"/>
<path d="M421.306 652.349C424.94 652.349 427.872 653.133 430.102 654.702C432.414 656.189 434.066 658.749 435.057 662.384C437.7 659.988 440.591 657.717 443.73 655.57C446.951 653.422 450.007 652.349 452.897 652.349C457.275 652.349 460.578 653.257 462.808 655.074C465.038 656.891 466.525 659.699 467.268 663.498C468.094 667.298 468.507 672.129 468.507 677.993V691.373C468.507 693.19 468.507 694.884 468.507 696.453C468.59 698.022 468.796 699.302 469.127 700.293C469.292 700.706 469.87 701.078 470.861 701.408C471.935 701.739 473.05 701.987 474.206 702.152C475.362 702.234 476.188 702.276 476.684 702.276C476.932 702.606 477.056 703.184 477.056 704.01C477.138 704.836 477.014 705.414 476.684 705.745C474.206 705.579 472.017 705.455 470.118 705.373C468.301 705.208 466.195 705.125 463.799 705.125C461.487 705.125 459.381 705.208 457.481 705.373C455.582 705.455 453.393 705.579 450.915 705.745C450.585 705.414 450.42 704.836 450.42 704.01C450.502 703.184 450.667 702.606 450.915 702.276C451.411 702.276 452.237 702.234 453.393 702.152C454.632 701.987 455.788 701.739 456.862 701.408C457.935 701.078 458.514 700.706 458.596 700.293C458.844 699.467 458.968 698.435 458.968 697.196C459.05 695.875 459.092 694.429 459.092 692.86C459.092 692.612 459.092 692.365 459.092 692.117C459.092 691.869 459.092 691.621 459.092 691.373V678.365C459.092 674.318 458.803 670.891 458.224 668.082C457.729 665.274 456.697 663.127 455.127 661.64C453.558 660.154 451.122 659.41 447.818 659.41C445.836 659.41 443.936 659.947 442.119 661.021C440.302 662.012 438.815 663.086 437.659 664.242C436.503 665.316 435.925 666.018 435.925 666.348C435.925 666.431 435.925 666.678 435.925 667.091C436.007 667.422 436.048 667.669 436.048 667.835C436.214 668.991 436.337 670.436 436.42 672.171C436.503 673.905 436.544 675.35 436.544 676.507V691.373C436.544 693.19 436.544 694.884 436.544 696.453C436.627 698.022 436.833 699.302 437.163 700.293C437.329 700.706 437.907 701.078 438.898 701.408C439.972 701.739 441.087 701.987 442.243 702.152C443.399 702.234 444.225 702.276 444.721 702.276C444.968 702.606 445.092 703.184 445.092 704.01C445.175 704.836 445.051 705.414 444.721 705.745C442.243 705.579 440.054 705.455 438.155 705.373C436.338 705.208 434.231 705.125 431.836 705.125C429.524 705.125 427.418 705.208 425.518 705.373C423.618 705.455 421.43 705.579 418.952 705.745C418.621 705.414 418.456 704.836 418.456 704.01C418.539 703.184 418.704 702.606 418.952 702.276C419.447 702.276 420.273 702.234 421.43 702.152C422.668 701.987 423.825 701.739 424.898 701.408C425.972 701.078 426.55 700.706 426.633 700.293C426.963 699.302 427.128 698.022 427.128 696.453C427.211 694.884 427.252 693.19 427.252 691.373V678.985C427.252 671.634 426.426 666.554 424.775 663.746C423.205 660.856 420.232 659.41 415.855 659.41C414.038 659.41 412.262 659.864 410.527 660.773C408.793 661.681 407.348 662.673 406.191 663.746C405.118 664.737 404.581 665.522 404.581 666.1V691.373C404.581 693.19 404.581 694.884 404.581 696.453C404.663 698.022 404.87 699.302 405.2 700.293C405.365 700.706 405.943 701.078 406.935 701.408C408.008 701.739 409.123 701.987 410.28 702.152C411.436 702.234 412.262 702.276 412.757 702.276C413.005 702.606 413.129 703.184 413.129 704.01C413.212 704.836 413.088 705.414 412.757 705.745C410.28 705.579 408.091 705.455 406.191 705.373C404.374 705.208 402.268 705.125 399.873 705.125C397.56 705.125 395.454 705.208 393.555 705.373C391.655 705.455 389.466 705.579 386.989 705.745C386.658 705.414 386.493 704.836 386.493 704.01C386.576 703.184 386.741 702.606 386.989 702.276C387.484 702.276 388.31 702.234 389.466 702.152C390.705 701.987 391.861 701.739 392.935 701.408C394.009 701.078 394.587 700.706 394.67 700.293C395 699.302 395.165 698.022 395.165 696.453C395.248 694.884 395.289 693.19 395.289 691.373V669.321C395.289 668.495 395.248 667.339 395.165 665.852C395.165 664.366 395 663.251 394.67 662.507C394.422 661.764 393.72 661.269 392.564 661.021C391.407 660.69 390.251 660.525 389.095 660.525C387.938 660.443 387.195 660.401 386.865 660.401C386.782 660.236 386.699 659.741 386.617 658.915C386.534 658.089 386.617 657.511 386.865 657.18C390.003 656.767 393.059 656.148 396.032 655.322C399.006 654.496 401.69 653.422 404.085 652.101C404.416 652.101 404.705 652.349 404.952 652.844C405.283 653.34 405.448 653.753 405.448 654.083C405.448 654.331 405.365 654.909 405.2 655.817C405.118 656.726 404.994 657.634 404.828 658.543C404.746 659.451 404.705 660.071 404.705 660.401C404.705 660.732 404.787 660.897 404.952 660.897C405.035 660.897 405.159 660.814 405.324 660.649C406.315 659.741 407.637 658.667 409.288 657.428C410.94 656.106 412.799 654.95 414.863 653.959C417.011 652.885 419.158 652.349 421.306 652.349Z" fill="white"/>
<path d="M485.825 653.959C488.138 653.959 490.451 653.876 492.763 653.711C495.158 653.546 496.893 653.422 497.967 653.34C498.132 653.67 498.173 654.331 498.09 655.322C498.008 656.313 497.801 656.809 497.471 656.809C497.223 656.809 496.604 656.85 495.613 656.932C494.622 657.015 493.672 657.221 492.763 657.552C491.937 657.8 491.524 658.254 491.524 658.915C491.524 659.08 491.566 659.245 491.648 659.41L504.533 692.117C504.533 692.117 504.863 691.25 505.524 689.515C506.185 687.698 507.052 685.427 508.125 682.701C509.199 679.893 510.355 676.878 511.594 673.657C512.833 670.436 514.031 667.422 515.187 664.613C515.517 663.87 515.724 663.168 515.807 662.507C515.889 661.764 515.93 661.186 515.93 660.773C515.93 659.534 515.27 658.584 513.948 657.924C512.709 657.18 511.057 656.809 508.993 656.809C508.662 656.809 508.497 656.313 508.497 655.322C508.497 654.331 508.662 653.67 508.993 653.34C509.901 653.422 511.305 653.546 513.205 653.711C515.187 653.876 517.417 653.959 519.895 653.959C522.207 653.959 524.148 653.876 525.718 653.711C527.369 653.546 528.815 653.422 530.054 653.34C530.302 653.67 530.343 654.331 530.178 655.322C530.095 656.313 529.93 656.809 529.682 656.809C529.352 656.809 528.65 656.932 527.576 657.18C526.585 657.428 525.511 657.841 524.355 658.419C523.281 658.997 522.497 659.864 522.001 661.021C520.184 665.316 518.532 669.197 517.045 672.666C515.641 676.135 514.237 679.521 512.833 682.825C511.512 686.046 510.108 689.433 508.621 692.984C507.217 696.453 505.648 700.335 503.913 704.63C502.427 708.346 500.981 712.063 499.577 715.779C498.173 719.496 496.397 722.965 494.25 726.186C492.928 728.251 491.318 729.903 489.418 731.142C487.601 732.381 485.702 733 483.719 733C482.563 733 481.407 732.67 480.251 732.009C479.094 731.348 478.516 729.944 478.516 727.797C478.516 727.053 478.64 726.351 478.888 725.691C479.218 725.03 479.548 724.534 479.879 724.204C481.778 724.204 483.43 724.08 484.834 723.832C486.321 723.667 487.725 723.089 489.047 722.098C490.451 721.107 491.979 719.537 493.63 717.39C494.291 716.482 495.035 715.119 495.86 713.302C496.686 711.567 497.43 709.874 498.09 708.222C498.834 706.57 499.247 705.538 499.329 705.125C497.099 699.344 494.993 693.975 493.011 689.02C491.029 683.981 489.005 679.067 486.941 674.277C484.958 669.404 482.77 664.407 480.374 659.286C479.796 658.047 478.764 657.345 477.277 657.18C475.791 656.932 474.676 656.809 473.932 656.809C473.767 656.809 473.684 656.809 473.684 656.809C473.602 656.809 473.561 656.272 473.561 655.198C473.561 654.042 473.602 653.422 473.684 653.34C474.841 653.422 476.534 653.546 478.764 653.711C480.994 653.876 483.348 653.959 485.825 653.959Z" fill="white"/>
<path d="M542.072 679.604C542.65 678.035 543.806 677.87 545.541 679.108L556.443 686.666C557.682 687.492 557.806 689.143 556.815 691.621L551.983 703.143C551.074 705.29 549.505 705.497 547.275 703.762L537.984 696.701C536.414 695.462 535.919 694.182 536.497 692.86L542.072 679.604Z" fill="white"/>
<path d="M573.711 633.641C573.711 631.989 574.289 630.585 575.445 629.429C576.684 628.19 578.13 627.571 579.781 627.571C581.433 627.571 582.837 628.19 583.994 629.429C585.233 630.585 585.852 631.989 585.852 633.641C585.852 635.293 585.233 636.739 583.994 637.977C582.837 639.134 581.433 639.712 579.781 639.712C578.13 639.712 576.684 639.134 575.445 637.977C574.289 636.739 573.711 635.293 573.711 633.641ZM585.356 691.373C585.356 693.19 585.356 694.884 585.356 696.453C585.439 698.022 585.646 699.302 585.976 700.293C586.141 700.706 586.719 701.078 587.71 701.408C588.784 701.739 589.899 701.987 591.055 702.152C592.212 702.234 593.038 702.276 593.533 702.276C593.781 702.606 593.905 703.184 593.905 704.01C593.987 704.836 593.863 705.414 593.533 705.745C591.055 705.579 588.867 705.455 586.967 705.373C585.15 705.208 583.044 705.125 580.649 705.125C578.336 705.125 576.23 705.208 574.33 705.373C572.431 705.455 570.242 705.579 567.764 705.745C567.434 705.414 567.269 704.836 567.269 704.01C567.351 703.184 567.516 702.606 567.764 702.276C568.26 702.276 569.086 702.234 570.242 702.152C571.481 701.987 572.637 701.739 573.711 701.408C574.785 701.078 575.363 700.706 575.445 700.293C575.776 699.302 575.941 698.022 575.941 696.453C576.023 694.884 576.065 693.19 576.065 691.373V668.826C576.065 668 576.023 666.926 575.941 665.605C575.941 664.283 575.776 663.251 575.445 662.507C575.198 661.764 574.496 661.269 573.339 661.021C572.183 660.69 571.027 660.525 569.87 660.525C568.714 660.443 567.971 660.401 567.64 660.401C567.558 660.236 567.475 659.741 567.393 658.915C567.31 658.089 567.393 657.511 567.64 657.18C570.779 656.767 573.835 656.148 576.808 655.322C579.781 654.496 582.466 653.422 584.861 652.101C585.191 652.101 585.48 652.349 585.728 652.844C586.058 653.34 586.224 653.753 586.224 654.083C586.224 654.331 586.141 655.033 585.976 656.189C585.811 657.345 585.645 658.502 585.48 659.658C585.398 660.814 585.356 661.599 585.356 662.012V691.373Z" fill="white"/>
<path d="M626.45 652.349C627.771 652.349 629.34 652.514 631.157 652.844C632.975 653.092 634.172 653.34 634.75 653.587C635.163 653.587 635.37 652.761 635.37 651.11V637.854C635.37 636.945 635.328 635.871 635.246 634.632C635.246 633.311 635.081 632.279 634.75 631.535C634.42 630.627 633.511 630.049 632.025 629.801C630.538 629.553 628.969 629.429 627.317 629.429C627.234 629.429 627.152 628.934 627.069 627.942C627.069 626.869 627.193 626.291 627.441 626.208C630.497 625.878 633.47 625.3 636.361 624.474C639.334 623.565 642.101 622.533 644.661 621.376C644.992 621.376 645.281 621.624 645.529 622.12C645.859 622.533 646.024 622.946 646.024 623.359C646.024 623.359 645.776 624.267 645.281 626.084C644.868 627.901 644.661 630.503 644.661 633.889V685.675C644.661 687.987 644.703 690.341 644.785 692.736C644.95 695.049 645.198 696.659 645.529 697.568C645.942 698.476 646.891 699.055 648.378 699.302C649.947 699.467 651.145 699.591 651.971 699.674C652.301 699.674 652.508 699.674 652.59 699.674C652.755 699.757 652.838 700.004 652.838 700.417C652.921 700.748 652.962 700.995 652.962 701.161C652.962 701.243 652.879 701.574 652.714 702.152C652.632 702.647 652.425 702.895 652.095 702.895C650.03 702.978 647.759 703.308 645.281 703.886C642.886 704.464 640.821 705.001 639.086 705.497C637.352 706.075 636.443 706.364 636.361 706.364C636.03 706.364 635.783 706.075 635.617 705.497C635.452 704.919 635.37 704.423 635.37 704.01V699.798C635.37 699.055 635.246 698.807 634.998 699.055C634.42 699.715 633.181 700.624 631.281 701.78C629.464 702.936 627.441 704.01 625.211 705.001C622.981 705.91 620.875 706.364 618.893 706.364C615.258 706.364 611.79 705.249 608.486 703.019C605.265 700.706 602.622 697.609 600.557 693.727C598.575 689.763 597.584 685.344 597.584 680.471C597.584 676.507 598.533 672.831 600.433 669.445C602.415 665.976 604.893 663.003 607.866 660.525C610.922 657.965 614.102 655.983 617.406 654.579C620.71 653.092 623.724 652.349 626.45 652.349ZM622.485 657.428C619.429 657.428 616.786 658.419 614.556 660.401C612.409 662.301 610.716 664.779 609.477 667.835C608.321 670.891 607.743 674.112 607.743 677.498C607.743 681.297 608.403 684.807 609.725 688.028C611.046 691.25 612.987 693.851 615.548 695.833C618.108 697.816 621.205 698.807 624.839 698.807C627.565 698.807 630.001 698.27 632.149 697.196C634.296 696.04 635.37 694.966 635.37 693.975V663.375C635.37 661.971 634.048 660.649 631.405 659.41C628.845 658.089 625.872 657.428 622.485 657.428Z" fill="white"/>
<path d="M14.3369 187.848L36.8786 182.212L36.8787 16.9063L14.3369 11.2709L14.3369 5.63544L48.1495 5.63544C62.9269 5.63544 74.5735 10.3943 83.0892 19.9119C86.3453 23.6688 89.1004 28.3024 91.3545 33.8126C95.1115 26.7996 99.1189 21.1642 103.377 16.9063C114.648 5.63543 127.547 -1.26998e-06 142.073 0C156.6 1.26998e-06 169.374 3.25603 180.394 9.7681C191.415 16.0297 199.931 24.6707 205.942 35.6911C209.699 28.4276 213.706 22.5417 217.964 18.0334C229.485 6.01114 242.384 8.76944e-06 256.661 1.00175e-05C269.935 1.1178e-05 281.832 2.75511 292.352 8.26532C303.122 13.7755 311.387 21.2894 317.148 30.8071C323.159 40.3247 326.164 50.7189 326.164 61.9898V182.212L348.706 187.848V193.483L299.866 193.483C277.324 193.483 266.053 182.212 266.053 159.671L266.053 61.9898C266.053 45.7097 263.548 33.5622 258.539 25.5473C253.53 17.282 247.894 13.1494 241.633 13.1494C234.369 13.1494 226.981 18.1586 219.467 28.1772C216.461 32.936 213.831 37.9453 211.577 43.205L211.577 182.212L234.119 187.848V193.483H128.924V187.848L151.466 182.212L151.466 61.9898C151.466 45.7096 148.961 33.5621 143.952 25.5473C138.943 17.282 133.307 13.1494 127.046 13.1494C119.782 13.1494 112.393 18.1586 104.88 28.1772C101.874 32.936 99.2441 37.9453 96.99 43.205L96.99 182.212L119.532 187.848V193.483L14.3369 193.483L14.3369 187.848Z" fill="white"/>
<path d="M337.685 16.9063L318.9 11.2709V5.63547L362.105 5.63547C375.379 5.63547 385.899 8.39057 393.663 13.9008C401.428 19.411 407.814 27.3006 412.824 37.5696L454.15 123.98L475.565 69.128L450.393 16.9063L431.608 11.2709V5.63548L474.814 5.63548C488.088 5.63548 498.608 8.39058 506.372 13.9008C514.136 19.411 520.523 27.3006 525.532 37.5696L566.859 123.98L606.307 22.5418L578.13 11.2709V5.63549L647.633 5.6355V11.2709L617.578 22.5418L548.074 197.24H536.803L481.2 81.526L435.365 197.24H424.095L337.685 16.9063Z" fill="white"/>
<path d="M14.3369 196.152L36.8787 201.788V367.094L14.3369 372.729V378.365H48.1495C62.9269 378.365 74.5735 373.606 83.0892 364.088C86.3453 360.331 89.1004 355.698 91.3545 350.187C95.1115 357.2 99.1189 362.836 103.377 367.094C114.648 378.365 127.547 384 142.073 384C156.6 384 169.374 380.744 180.394 374.232C191.415 367.97 199.931 359.329 205.942 348.309C209.699 355.572 213.706 361.458 217.964 365.967C229.485 377.989 242.384 384 256.661 384C269.935 384 281.832 381.245 292.352 375.735C303.122 370.225 311.387 362.711 317.148 353.193C323.159 343.675 326.164 333.281 326.164 322.01V201.788L348.706 196.152V190.517H299.866C277.324 190.517 266.053 201.788 266.053 224.329V322.01C266.053 338.29 263.548 350.438 258.539 358.453C253.53 366.718 247.894 370.851 241.633 370.851C234.369 370.851 226.981 365.841 219.467 355.823C216.461 351.064 213.831 346.055 211.577 340.795V201.788L234.119 196.152V190.517H128.924V196.152L151.466 201.788V322.01C151.466 338.29 148.961 350.438 143.952 358.453C138.943 366.718 133.307 370.851 127.046 370.851C119.782 370.851 112.393 365.841 104.88 355.823C101.874 351.064 99.2441 346.055 96.99 340.795V201.788L119.532 196.152V190.517H14.3369V196.152Z" fill="white"/>
<path d="M337.685 367.094L318.9 372.729V378.365H362.105C375.379 378.365 385.899 375.609 393.663 370.099C401.428 364.589 407.814 356.699 412.824 346.43L454.15 260.02L475.565 314.872L450.393 367.094L431.609 372.729V378.365H474.814C488.088 378.365 498.608 375.609 506.372 370.099C514.136 364.589 520.523 356.699 525.532 346.43L566.859 260.02L606.307 361.458L578.13 372.729V378.365H647.633V372.729L617.578 361.458L548.074 186.76H536.803L481.2 302.474L435.365 186.76H424.095L337.685 367.094Z" fill="white"/>
</svg>
