<svg width="1133" height="268" viewBox="0 0 1133 268" fill="none" xmlns="http://www.w3.org/2000/svg">
<path d="M489.766 127.294L500.915 124.507V42.7413L489.766 39.9538V37.1664H506.49C513.8 37.1664 519.56 39.5202 523.773 44.2279C525.383 46.0862 526.746 48.3781 527.861 51.1037C529.719 47.6348 531.701 44.8474 533.808 42.7413C539.382 37.1663 545.763 34.3789 552.948 34.3789C560.134 34.3789 566.452 35.9894 571.903 39.2105C577.354 42.3077 581.566 46.5818 584.539 52.0328C586.398 48.4401 588.38 45.5287 590.486 43.2988C596.185 37.3522 602.565 34.3789 609.626 34.3789C616.192 34.3789 622.077 35.7416 627.28 38.4672C632.608 41.1927 636.696 44.9093 639.545 49.617C642.519 54.3247 644.005 59.466 644.005 65.041V124.507L655.155 127.294V130.082H630.997C619.847 130.082 614.272 124.507 614.272 113.357V65.041C614.272 56.9883 613.033 50.9798 610.556 47.0154C608.078 42.9271 605.29 40.883 602.193 40.883C598.601 40.883 594.946 43.3607 591.229 48.3162C589.743 50.67 588.442 53.1478 587.327 55.7494V124.507L598.477 127.294V130.082H546.444V127.294L557.594 124.507V65.041C557.594 56.9883 556.355 50.9798 553.877 47.0154C551.399 42.9271 548.612 40.883 545.515 40.883C541.922 40.883 538.267 43.3607 534.551 48.3162C533.064 50.67 531.763 53.1478 530.648 55.7494V124.507L541.798 127.294V130.082H489.766V127.294Z" fill="#020202"/>
<path d="M691.429 132.869C680.403 132.869 671.917 130.515 665.97 125.807C660.024 121.1 657.051 115.091 657.051 107.782C657.051 102.95 658.104 98.1808 660.21 93.4731C661.077 91.2431 662.192 89.199 663.555 87.3407C668.634 86.1018 674.147 84.9868 680.094 83.9957C693.473 81.7657 705.305 80.403 715.587 79.9074V74.3325C715.587 60.581 713.915 51.1037 710.57 45.9004C707.225 40.6971 702.084 38.0955 695.146 38.0955C692.544 38.0955 690.314 38.4052 688.456 39.0247L685.854 39.9538V67.8284L683.439 68.3859C681.456 68.6337 679.784 68.7576 678.421 68.7576C674.209 68.7576 670.802 67.5187 668.2 65.041C665.723 62.4393 664.484 59.0324 664.484 54.8203C664.484 49.1215 667.333 44.2899 673.032 40.3255C678.855 36.3611 687.465 34.3789 698.862 34.3789C708.526 34.3789 716.826 36.1133 723.764 39.5822C730.825 42.9271 736.153 47.6348 739.745 53.7053C743.462 59.6519 745.32 66.5276 745.32 74.3325V124.507L756.47 127.294V130.082H739.745C732.312 130.082 726.551 127.79 722.463 123.206C720.729 121.347 719.366 118.994 718.375 116.144C716.64 119.241 714.596 122.029 712.242 124.507C706.667 130.082 699.73 132.869 691.429 132.869ZM698.862 126.365C703.446 126.365 707.597 123.887 711.313 118.932C712.676 117.073 714.101 114.596 715.587 111.498V84.5532C709.888 84.5532 704.437 84.8629 699.234 85.4823C695.394 85.9779 692.792 86.2876 691.429 86.4115C690.81 87.7743 690.19 89.6326 689.571 91.9864C688.332 96.6941 687.713 101.34 687.713 105.924C687.713 112.861 688.766 118.003 690.872 121.347C692.978 124.692 695.641 126.365 698.862 126.365Z" fill="#020202"/>
<path d="M801.157 132.871C794.219 132.871 787.963 131.446 782.388 128.597C776.937 125.624 772.662 121.783 769.565 117.075C766.468 112.368 764.92 107.412 764.92 102.209V42.7429L753.77 39.9554V37.168H777.928C789.078 37.168 794.652 42.7429 794.652 53.8927V102.209C794.652 110.014 796.015 116.022 798.741 120.234C801.59 124.323 804.873 126.367 808.59 126.367C813.174 126.367 817.324 123.889 821.04 118.934C822.403 117.075 823.828 114.598 825.314 111.5V42.7429L814.165 39.9554V37.168H866.197V39.9554L855.047 42.7429V131.013H853.189C844.145 131.013 837.27 128.535 832.562 123.579C830.456 121.349 828.969 118.872 828.102 116.146C826.368 119.243 824.323 122.031 821.97 124.509C816.395 130.084 809.457 132.871 801.157 132.871Z" fill="#020202"/>
<path d="M866.27 127.294L877.42 124.507V5.57493L866.27 2.78746V0H890.428C901.578 0 907.153 5.57493 907.153 16.7248V124.507L918.302 127.294V130.082H866.27V127.294Z" fill="#020202"/>
<path d="M954.509 132.869C943.483 132.869 934.997 130.515 929.051 125.807C923.104 121.1 920.131 115.091 920.131 107.782C920.131 102.95 921.184 98.1808 923.29 93.4731C924.157 91.2431 925.272 89.199 926.635 87.3407C931.714 86.1018 937.227 84.9868 943.174 83.9957C956.554 81.7657 968.385 80.403 978.667 79.9074V74.3325C978.667 60.581 976.995 51.1037 973.65 45.9004C970.305 40.6971 965.164 38.0955 958.226 38.0955C955.624 38.0955 953.394 38.4052 951.536 39.0247L948.935 39.9538V67.8284L946.519 68.3859C944.537 68.6337 942.864 68.7576 941.501 68.7576C937.289 68.7576 933.882 67.5187 931.281 65.041C928.803 62.4393 927.564 59.0324 927.564 54.8203C927.564 49.1215 930.413 44.2899 936.112 40.3255C941.935 36.3611 950.545 34.3789 961.943 34.3789C971.606 34.3789 979.906 36.1133 986.844 39.5822C993.906 42.9271 999.233 47.6348 1002.83 53.7053C1006.54 59.6519 1008.4 66.5276 1008.4 74.3325V124.507L1019.55 127.294V130.082H1002.83C995.392 130.082 989.631 127.79 985.543 123.206C983.809 121.347 982.446 118.994 981.455 116.144C979.72 119.241 977.676 122.029 975.322 124.507C969.748 130.082 962.81 132.869 954.509 132.869ZM961.943 126.365C966.526 126.365 970.677 123.887 974.393 118.932C975.756 117.073 977.181 114.596 978.667 111.498V84.5532C972.969 84.5532 967.518 84.8629 962.314 85.4823C958.474 85.9779 955.872 86.2876 954.509 86.4115C953.89 87.7743 953.271 89.6326 952.651 91.9864C951.412 96.6941 950.793 101.34 950.793 105.924C950.793 112.861 951.846 118.003 953.952 121.347C956.058 124.692 958.722 126.365 961.943 126.365Z" fill="#020202"/>
<path d="M1019.64 127.294L1030.79 124.507V5.57493L1019.64 2.78746V0H1043.8C1054.95 0 1060.52 5.57493 1060.52 16.7248V46.4577C1062.38 43.9799 1064.3 41.9977 1066.28 40.5111C1071.61 36.4228 1077.74 34.3787 1084.68 34.3787C1091.62 34.3787 1097.81 35.8653 1103.26 38.8386C1108.84 41.688 1113.17 45.4666 1116.27 50.1743C1119.37 54.882 1120.92 59.8375 1120.92 65.0408V124.507L1132.06 127.294V130.082H1107.91C1096.76 130.082 1091.18 124.507 1091.18 113.357V65.0408C1091.18 57.2359 1089.76 51.2893 1086.91 47.201C1084.18 42.9888 1080.96 40.8828 1077.24 40.8828C1072.54 40.8828 1068.32 43.3605 1064.61 48.316C1063 50.4221 1061.64 52.8998 1060.52 55.7492V124.507L1071.67 127.294V130.082H1019.64V127.294Z" fill="#020202"/>
<path d="M900.578 187.35C904.212 187.35 907.144 188.134 909.374 189.703C911.687 191.19 913.339 193.751 914.33 197.385C916.973 194.989 919.864 192.718 923.002 190.571C926.223 188.423 929.279 187.35 932.17 187.35C936.547 187.35 939.851 188.258 942.081 190.075C944.311 191.892 945.798 194.7 946.541 198.5C947.367 202.299 947.78 207.13 947.78 212.995V226.375C947.78 228.192 947.78 229.885 947.78 231.454C947.862 233.023 948.069 234.303 948.399 235.295C948.564 235.707 949.143 236.079 950.134 236.409C951.207 236.74 952.322 236.988 953.479 237.153C954.635 237.235 955.461 237.277 955.957 237.277C956.204 237.607 956.328 238.185 956.328 239.011C956.411 239.837 956.287 240.415 955.957 240.746C953.479 240.58 951.29 240.457 949.39 240.374C947.573 240.209 945.467 240.126 943.072 240.126C940.76 240.126 938.653 240.209 936.754 240.374C934.854 240.457 932.665 240.58 930.188 240.746C929.857 240.415 929.692 239.837 929.692 239.011C929.775 238.185 929.94 237.607 930.188 237.277C930.683 237.277 931.509 237.235 932.665 237.153C933.904 236.988 935.061 236.74 936.134 236.409C937.208 236.079 937.786 235.707 937.869 235.295C938.117 234.469 938.24 233.436 938.24 232.197C938.323 230.876 938.364 229.43 938.364 227.861C938.364 227.613 938.364 227.366 938.364 227.118C938.364 226.87 938.364 226.622 938.364 226.375V213.366C938.364 209.319 938.075 205.892 937.497 203.083C937.002 200.275 935.969 198.128 934.4 196.641C932.831 195.155 930.394 194.411 927.09 194.411C925.108 194.411 923.209 194.948 921.392 196.022C919.575 197.013 918.088 198.087 916.932 199.243C915.775 200.317 915.197 201.019 915.197 201.349C915.197 201.432 915.197 201.679 915.197 202.092C915.28 202.423 915.321 202.671 915.321 202.836C915.486 203.992 915.61 205.437 915.693 207.172C915.775 208.906 915.817 210.352 915.817 211.508V226.375C915.817 228.192 915.817 229.885 915.817 231.454C915.899 233.023 916.106 234.303 916.436 235.295C916.601 235.707 917.179 236.079 918.17 236.409C919.244 236.74 920.359 236.988 921.515 237.153C922.672 237.235 923.498 237.277 923.993 237.277C924.241 237.607 924.365 238.185 924.365 239.011C924.447 239.837 924.324 240.415 923.993 240.746C921.515 240.58 919.327 240.457 917.427 240.374C915.61 240.209 913.504 240.126 911.109 240.126C908.796 240.126 906.69 240.209 904.791 240.374C902.891 240.457 900.702 240.58 898.224 240.746C897.894 240.415 897.729 239.837 897.729 239.011C897.811 238.185 897.977 237.607 898.224 237.277C898.72 237.277 899.546 237.235 900.702 237.153C901.941 236.988 903.097 236.74 904.171 236.409C905.245 236.079 905.823 235.707 905.905 235.295C906.236 234.303 906.401 233.023 906.401 231.454C906.484 229.885 906.525 228.192 906.525 226.375V213.986C906.525 206.635 905.699 201.556 904.047 198.747C902.478 195.857 899.505 194.411 895.127 194.411C893.31 194.411 891.534 194.866 889.8 195.774C888.066 196.683 886.62 197.674 885.464 198.747C884.39 199.738 883.853 200.523 883.853 201.101V226.375C883.853 228.192 883.853 229.885 883.853 231.454C883.936 233.023 884.142 234.303 884.473 235.295C884.638 235.707 885.216 236.079 886.207 236.409C887.281 236.74 888.396 236.988 889.552 237.153C890.709 237.235 891.534 237.277 892.03 237.277C892.278 237.607 892.402 238.185 892.402 239.011C892.484 239.837 892.36 240.415 892.03 240.746C889.552 240.58 887.364 240.457 885.464 240.374C883.647 240.209 881.541 240.126 879.146 240.126C876.833 240.126 874.727 240.209 872.827 240.374C870.928 240.457 868.739 240.58 866.261 240.746C865.931 240.415 865.766 239.837 865.766 239.011C865.848 238.185 866.013 237.607 866.261 237.277C866.757 237.277 867.583 237.235 868.739 237.153C869.978 236.988 871.134 236.74 872.208 236.409C873.281 236.079 873.86 235.707 873.942 235.295C874.273 234.303 874.438 233.023 874.438 231.454C874.52 229.885 874.562 228.192 874.562 226.375V204.322C874.562 203.496 874.52 202.34 874.438 200.853C874.438 199.367 874.273 198.252 873.942 197.508C873.694 196.765 872.992 196.27 871.836 196.022C870.68 195.691 869.524 195.526 868.367 195.526C867.211 195.444 866.468 195.402 866.137 195.402C866.055 195.237 865.972 194.742 865.889 193.916C865.807 193.09 865.889 192.512 866.137 192.181C869.276 191.768 872.332 191.149 875.305 190.323C878.278 189.497 880.963 188.423 883.358 187.102C883.688 187.102 883.977 187.35 884.225 187.845C884.555 188.341 884.721 188.754 884.721 189.084C884.721 189.332 884.638 189.91 884.473 190.819C884.39 191.727 884.266 192.636 884.101 193.544C884.019 194.453 883.977 195.072 883.977 195.402C883.977 195.733 884.06 195.898 884.225 195.898C884.308 195.898 884.431 195.815 884.597 195.65C885.588 194.742 886.909 193.668 888.561 192.429C890.213 191.108 892.071 189.951 894.136 188.96C896.283 187.886 898.431 187.35 900.578 187.35Z" fill="#020202"/>
<path d="M965.097 188.959C967.41 188.959 969.722 188.877 972.035 188.711C974.43 188.546 976.165 188.422 977.238 188.34C977.403 188.67 977.445 189.331 977.362 190.322C977.279 191.313 977.073 191.809 976.743 191.809C976.495 191.809 975.875 191.85 974.884 191.932C973.893 192.015 972.943 192.222 972.035 192.552C971.209 192.8 970.796 193.254 970.796 193.915C970.796 194.08 970.837 194.245 970.92 194.41L983.804 227.117C983.804 227.117 984.135 226.25 984.795 224.515C985.456 222.698 986.323 220.427 987.397 217.701C988.471 214.893 989.627 211.879 990.866 208.657C992.105 205.436 993.302 202.422 994.459 199.614C994.789 198.87 994.996 198.168 995.078 197.507C995.161 196.764 995.202 196.186 995.202 195.773C995.202 194.534 994.541 193.584 993.22 192.924C991.981 192.18 990.329 191.809 988.264 191.809C987.934 191.809 987.769 191.313 987.769 190.322C987.769 189.331 987.934 188.67 988.264 188.34C989.173 188.422 990.577 188.546 992.477 188.711C994.459 188.877 996.689 188.959 999.166 188.959C1001.48 188.959 1003.42 188.877 1004.99 188.711C1006.64 188.546 1008.09 188.422 1009.33 188.34C1009.57 188.67 1009.62 189.331 1009.45 190.322C1009.37 191.313 1009.2 191.809 1008.95 191.809C1008.62 191.809 1007.92 191.932 1006.85 192.18C1005.86 192.428 1004.78 192.841 1003.63 193.419C1002.55 193.997 1001.77 194.865 1001.27 196.021C999.456 200.316 997.804 204.197 996.317 207.666C994.913 211.135 993.509 214.522 992.105 217.825C990.783 221.046 989.379 224.433 987.893 227.984C986.489 231.453 984.919 235.335 983.185 239.63C981.698 243.346 980.253 247.063 978.849 250.78C977.445 254.496 975.669 257.965 973.522 261.186C972.2 263.251 970.59 264.903 968.69 266.142C966.873 267.381 964.973 268 962.991 268C961.835 268 960.678 267.67 959.522 267.009C958.366 266.348 957.788 264.944 957.788 262.797C957.788 262.053 957.912 261.351 958.159 260.691C958.49 260.03 958.82 259.534 959.15 259.204C961.05 259.204 962.702 259.08 964.106 258.832C965.593 258.667 966.997 258.089 968.318 257.098C969.722 256.107 971.25 254.538 972.902 252.39C973.563 251.482 974.306 250.119 975.132 248.302C975.958 246.567 976.701 244.874 977.362 243.222C978.105 241.571 978.518 240.538 978.601 240.125C976.371 234.344 974.265 228.975 972.283 224.02C970.3 218.982 968.277 214.067 966.212 209.277C964.23 204.404 962.041 199.407 959.646 194.286C959.068 193.047 958.035 192.345 956.549 192.18C955.062 191.932 953.947 191.809 953.204 191.809C953.039 191.809 952.956 191.809 952.956 191.809C952.873 191.809 952.832 191.272 952.832 190.198C952.832 189.042 952.873 188.422 952.956 188.34C954.112 188.422 955.805 188.546 958.035 188.711C960.265 188.877 962.619 188.959 965.097 188.959Z" fill="#020202"/>
<path d="M1021.34 214.604C1021.92 213.035 1023.08 212.87 1024.81 214.109L1035.72 221.666C1036.95 222.492 1037.08 224.144 1036.09 226.621L1031.26 238.143C1030.35 240.29 1028.78 240.497 1026.55 238.762L1017.26 231.701C1015.69 230.462 1015.19 229.182 1015.77 227.86L1021.34 214.604Z" fill="#020202"/>
<path d="M1052.98 168.64C1052.98 166.989 1053.56 165.585 1054.72 164.428C1055.96 163.189 1057.4 162.57 1059.05 162.57C1060.71 162.57 1062.11 163.189 1063.27 164.428C1064.51 165.585 1065.12 166.989 1065.12 168.64C1065.12 170.292 1064.51 171.738 1063.27 172.977C1062.11 174.133 1060.71 174.711 1059.05 174.711C1057.4 174.711 1055.96 174.133 1054.72 172.977C1053.56 171.738 1052.98 170.292 1052.98 168.64ZM1064.63 226.373C1064.63 228.19 1064.63 229.883 1064.63 231.452C1064.71 233.021 1064.92 234.301 1065.25 235.293C1065.41 235.705 1065.99 236.077 1066.98 236.407C1068.06 236.738 1069.17 236.986 1070.33 237.151C1071.48 237.233 1072.31 237.275 1072.81 237.275C1073.05 237.605 1073.18 238.183 1073.18 239.009C1073.26 239.835 1073.14 240.413 1072.81 240.744C1070.33 240.578 1068.14 240.455 1066.24 240.372C1064.42 240.207 1062.32 240.124 1059.92 240.124C1057.61 240.124 1055.5 240.207 1053.6 240.372C1051.7 240.455 1049.51 240.578 1047.04 240.744C1046.71 240.413 1046.54 239.835 1046.54 239.009C1046.62 238.183 1046.79 237.605 1047.04 237.275C1047.53 237.275 1048.36 237.233 1049.51 237.151C1050.75 236.986 1051.91 236.738 1052.98 236.407C1054.06 236.077 1054.64 235.705 1054.72 235.293C1055.05 234.301 1055.21 233.021 1055.21 231.452C1055.3 229.883 1055.34 228.19 1055.34 226.373V203.825C1055.34 202.999 1055.3 201.925 1055.21 200.604C1055.21 199.282 1055.05 198.25 1054.72 197.506C1054.47 196.763 1053.77 196.268 1052.61 196.02C1051.46 195.689 1050.3 195.524 1049.14 195.524C1047.99 195.442 1047.24 195.4 1046.91 195.4C1046.83 195.235 1046.75 194.74 1046.67 193.914C1046.58 193.088 1046.67 192.51 1046.91 192.179C1050.05 191.766 1053.11 191.147 1056.08 190.321C1059.05 189.495 1061.74 188.421 1064.13 187.1C1064.46 187.1 1064.75 187.348 1065 187.843C1065.33 188.339 1065.5 188.752 1065.5 189.082C1065.5 189.33 1065.41 190.032 1065.25 191.188C1065.08 192.344 1064.92 193.501 1064.75 194.657C1064.67 195.813 1064.63 196.598 1064.63 197.011V226.373Z" fill="#020202"/>
<path d="M1105.72 187.348C1107.04 187.348 1108.61 187.513 1110.43 187.843C1112.25 188.091 1113.44 188.339 1114.02 188.586C1114.44 188.586 1114.64 187.761 1114.64 186.109V172.853C1114.64 171.944 1114.6 170.87 1114.52 169.632C1114.52 168.31 1114.35 167.278 1114.02 166.534C1113.69 165.626 1112.78 165.048 1111.3 164.8C1109.81 164.552 1108.24 164.428 1106.59 164.428C1106.51 164.428 1106.42 163.933 1106.34 162.942C1106.34 161.868 1106.47 161.29 1106.71 161.207C1109.77 160.877 1112.74 160.299 1115.63 159.473C1118.61 158.564 1121.37 157.532 1123.93 156.375C1124.26 156.375 1124.55 156.623 1124.8 157.119C1125.13 157.532 1125.3 157.945 1125.3 158.358C1125.3 158.358 1125.05 159.266 1124.55 161.083C1124.14 162.9 1123.93 165.502 1123.93 168.888V220.674C1123.93 222.986 1123.98 225.34 1124.06 227.735C1124.22 230.048 1124.47 231.658 1124.8 232.567C1125.21 233.475 1126.16 234.054 1127.65 234.301C1129.22 234.467 1130.42 234.59 1131.24 234.673C1131.57 234.673 1131.78 234.673 1131.86 234.673C1132.03 234.756 1132.11 235.003 1132.11 235.416C1132.19 235.747 1132.23 235.995 1132.23 236.16C1132.23 236.242 1132.15 236.573 1131.99 237.151C1131.9 237.646 1131.7 237.894 1131.37 237.894C1129.3 237.977 1127.03 238.307 1124.55 238.885C1122.16 239.463 1120.09 240 1118.36 240.496C1116.62 241.074 1115.72 241.363 1115.63 241.363C1115.3 241.363 1115.06 241.074 1114.89 240.496C1114.72 239.918 1114.64 239.422 1114.64 239.009V234.797C1114.64 234.054 1114.52 233.806 1114.27 234.054C1113.69 234.714 1112.45 235.623 1110.55 236.779C1108.74 237.935 1106.71 239.009 1104.48 240C1102.25 240.909 1100.15 241.363 1098.17 241.363C1094.53 241.363 1091.06 240.248 1087.76 238.018C1084.54 235.705 1081.89 232.608 1079.83 228.726C1077.85 224.762 1076.86 220.343 1076.86 215.47C1076.86 211.506 1077.81 207.831 1079.71 204.444C1081.69 200.975 1084.17 198.002 1087.14 195.524C1090.19 192.964 1093.37 190.982 1096.68 189.578C1099.98 188.091 1103 187.348 1105.72 187.348ZM1101.76 192.427C1098.7 192.427 1096.06 193.418 1093.83 195.4C1091.68 197.3 1089.99 199.778 1088.75 202.834C1087.59 205.89 1087.02 209.111 1087.02 212.497C1087.02 216.296 1087.68 219.806 1089 223.028C1090.32 226.249 1092.26 228.85 1094.82 230.833C1097.38 232.815 1100.48 233.806 1104.11 233.806C1106.84 233.806 1109.27 233.269 1111.42 232.195C1113.57 231.039 1114.64 229.965 1114.64 228.974V198.374C1114.64 196.97 1113.32 195.648 1110.68 194.409C1108.12 193.088 1105.14 192.427 1101.76 192.427Z" fill="#020202"/>
<path d="M8.51172 131.522L21.8943 128.176L21.8944 30.037L8.51173 26.6913V23.3457H28.5857C37.3587 23.3457 44.2731 26.1709 49.3288 31.8213C51.2618 34.0518 52.8975 36.8026 54.2357 40.0739C56.4662 35.9105 58.8453 32.5648 61.3731 30.037C68.0644 23.3457 75.7223 20 84.3466 20C92.971 20 100.554 21.9331 107.097 25.7991C113.64 29.5165 118.695 34.6466 122.264 41.1892C124.495 36.877 126.874 33.3826 129.401 30.7061C136.242 23.5687 143.899 20 152.375 20C160.256 20 167.319 21.6357 173.564 24.907C179.958 28.1783 184.865 32.6392 188.285 38.2896C191.854 43.9401 193.638 50.1109 193.638 56.8022V128.176L207.021 131.522V134.868H178.025C164.642 134.868 157.951 128.176 157.951 114.794V56.8022C157.951 47.137 156.464 39.9253 153.49 35.167C150.516 30.26 147.171 27.8065 143.453 27.8065C139.141 27.8065 134.755 30.7805 130.294 36.7283C128.509 39.5535 126.948 42.5274 125.61 45.6501V128.176L138.992 131.522V134.868H76.5401V131.522L89.9227 128.176V56.8022C89.9227 47.137 88.4358 39.9253 85.4619 35.167C82.4879 30.26 79.1423 27.8065 75.4249 27.8065C71.1127 27.8065 66.7262 30.7805 62.2653 36.7283C60.4809 39.5535 58.9196 42.5274 57.5814 45.65V128.176L70.964 131.522V134.868H8.51172V131.522Z" fill="#020202"/>
<path d="M200.477 30.0351L189.324 26.6894V23.3438H214.974C222.855 23.3438 229.1 24.9794 233.71 28.2507C238.32 31.522 242.111 36.206 245.085 42.3025L269.62 93.6026L282.334 61.0382L267.39 30.0351L256.237 26.6894V23.3438H281.888C289.768 23.3438 296.014 24.9794 300.623 28.2507C305.233 31.5221 309.025 36.206 311.998 42.3025L336.533 93.6026L359.953 33.3808L343.225 26.6894V23.3438H384.488V26.6894L366.644 33.3808L325.381 137.096H318.69L285.679 68.3985L258.468 137.096H251.777L200.477 30.0351Z" fill="#020202"/>
<path d="M8.51172 136.451L21.8944 139.797V237.936L8.51172 241.282V244.627H28.5857C37.3587 244.627 44.2731 241.802 49.3288 236.152C51.2618 233.921 52.8975 231.17 54.2357 227.899C56.4662 232.063 58.8453 235.408 61.3731 237.936C68.0644 244.627 75.7223 247.973 84.3466 247.973C92.971 247.973 100.554 246.04 107.097 242.174C113.64 238.456 118.695 233.326 122.264 226.784C124.495 231.096 126.874 234.59 129.401 237.267C136.242 244.404 143.899 247.973 152.375 247.973C160.256 247.973 167.319 246.337 173.564 243.066C179.958 239.795 184.865 235.334 188.285 229.683C191.854 224.033 193.638 217.862 193.638 211.171V139.797L207.021 136.451V133.105H178.025C164.642 133.105 157.951 139.797 157.951 153.179V211.171C157.951 220.836 156.464 228.048 153.49 232.806C150.516 237.713 147.171 240.166 143.453 240.166C139.141 240.166 134.755 237.193 130.294 231.245C128.509 228.42 126.948 225.446 125.61 222.323V139.797L138.992 136.451V133.105H76.5401V136.451L89.9227 139.797V211.171C89.9227 220.836 88.4358 228.048 85.4619 232.806C82.4879 237.713 79.1423 240.166 75.4249 240.166C71.1127 240.166 66.7262 237.193 62.2653 231.245C60.481 228.42 58.9196 225.446 57.5814 222.323V139.797L70.964 136.451V133.105H8.51172V136.451Z" fill="#020202"/>
<path d="M200.477 237.936L189.324 241.282V244.627H214.974C222.855 244.627 229.1 242.992 233.71 239.72C238.32 236.449 242.111 231.765 245.085 225.669L269.62 174.369L282.334 206.933L267.39 237.936L256.238 241.282V244.627H281.888C289.768 244.627 296.014 242.992 300.623 239.72C305.233 236.449 309.025 231.765 311.998 225.669L336.533 174.369L359.953 234.59L343.225 241.282V244.627H384.488V241.282L366.644 234.59L325.381 130.875H318.69L285.679 199.573L258.468 130.875H251.777L200.477 237.936Z" fill="#020202"/>
</svg>
