<svg width="1133" height="268" viewBox="0 0 1133 268" fill="none" xmlns="http://www.w3.org/2000/svg">
<path d="M489.766 127.294L500.915 124.507V42.7411L489.766 39.9536V37.1662H506.49C513.8 37.1662 519.56 39.52 523.773 44.2277C525.383 46.086 526.746 48.3779 527.861 51.1035C529.719 47.6346 531.701 44.8472 533.808 42.7411C539.382 37.1661 545.763 34.3787 552.948 34.3787C560.134 34.3787 566.452 35.9892 571.903 39.2103C577.354 42.3075 581.566 46.5816 584.539 52.0326C586.398 48.4399 588.38 45.5285 590.486 43.2986C596.185 37.352 602.565 34.3787 609.626 34.3787C616.192 34.3787 622.077 35.7414 627.28 38.467C632.608 41.1925 636.696 44.9091 639.545 49.6168C642.519 54.3245 644.005 59.4658 644.005 65.0408V124.507L655.155 127.294V130.082H630.997C619.847 130.082 614.272 124.507 614.272 113.357V65.0408C614.272 56.9881 613.033 50.9796 610.556 47.0152C608.078 42.9269 605.29 40.8828 602.193 40.8828C598.601 40.8828 594.946 43.3605 591.229 48.316C589.743 50.6698 588.442 53.1476 587.327 55.7492V124.507L598.477 127.294V130.082H546.444V127.294L557.594 124.507V65.0408C557.594 56.9881 556.355 50.9796 553.877 47.0152C551.399 42.9269 548.612 40.8828 545.515 40.8828C541.922 40.8828 538.267 43.3605 534.551 48.316C533.064 50.6698 531.763 53.1476 530.648 55.7492V124.507L541.798 127.294V130.082H489.766V127.294Z" fill="white"/>
<path d="M691.428 132.869C680.402 132.869 671.916 130.515 665.969 125.807C660.023 121.1 657.05 115.091 657.05 107.782C657.05 102.95 658.103 98.1806 660.209 93.4729C661.076 91.2429 662.191 89.1988 663.554 87.3405C668.633 86.1016 674.146 84.9866 680.093 83.9955C693.472 81.7655 705.304 80.4028 715.586 79.9072V74.3323C715.586 60.5808 713.914 51.1035 710.569 45.9002C707.224 40.6969 702.083 38.0953 695.145 38.0953C692.543 38.0953 690.313 38.405 688.455 39.0245L685.853 39.9536V67.8282L683.438 68.3857C681.455 68.6335 679.783 68.7574 678.42 68.7574C674.208 68.7574 670.801 67.5185 668.199 65.0408C665.722 62.4391 664.483 59.0322 664.483 54.8201C664.483 49.1213 667.332 44.2897 673.031 40.3253C678.854 36.3609 687.464 34.3787 698.861 34.3787C708.525 34.3787 716.825 36.1131 723.763 39.582C730.824 42.9269 736.152 47.6346 739.744 53.7051C743.461 59.6517 745.319 66.5274 745.319 74.3323V124.507L756.469 127.294V130.082H739.744C732.311 130.082 726.55 127.79 722.462 123.206C720.728 121.347 719.365 118.994 718.374 116.144C716.639 119.241 714.595 122.029 712.241 124.507C706.666 130.082 699.729 132.869 691.428 132.869ZM698.861 126.365C703.445 126.365 707.596 123.887 711.312 118.932C712.675 117.073 714.1 114.596 715.586 111.498V84.553C709.887 84.553 704.436 84.8627 699.233 85.4821C695.393 85.9777 692.791 86.2874 691.428 86.4113C690.809 87.7741 690.189 89.6324 689.57 91.9862C688.331 96.6939 687.712 101.34 687.712 105.924C687.712 112.861 688.765 118.003 690.871 121.347C692.977 124.692 695.64 126.365 698.861 126.365Z" fill="white"/>
<path d="M801.156 132.869C794.218 132.869 787.962 131.444 782.387 128.595C776.936 125.622 772.661 121.781 769.564 117.073C766.467 112.366 764.919 107.41 764.919 102.207V42.7411L753.769 39.9536V37.1662H777.927C789.077 37.1662 794.651 42.7411 794.651 53.8909V102.207C794.651 110.012 796.014 116.02 798.74 120.232C801.589 124.321 804.872 126.365 808.589 126.365C813.173 126.365 817.323 123.887 821.039 118.932C822.402 117.073 823.827 114.596 825.313 111.498V42.7411L814.164 39.9536V37.1662H866.196V39.9536L855.046 42.7411V131.011H853.188C844.144 131.011 837.269 128.533 832.561 123.577C830.455 121.347 828.968 118.87 828.101 116.144C826.367 119.241 824.322 122.029 821.969 124.507C816.394 130.082 809.456 132.869 801.156 132.869Z" fill="white"/>
<path d="M866.269 127.294L877.419 124.507V5.57493L866.269 2.78746V0H890.427C901.577 0 907.152 5.57493 907.152 16.7248V124.507L918.301 127.294V130.082H866.269V127.294Z" fill="white"/>
<path d="M954.509 132.869C943.483 132.869 934.997 130.515 929.051 125.807C923.104 121.1 920.131 115.091 920.131 107.782C920.131 102.95 921.184 98.1806 923.29 93.4729C924.157 91.2429 925.272 89.1988 926.635 87.3405C931.714 86.1016 937.227 84.9866 943.174 83.9955C956.554 81.7655 968.385 80.4028 978.667 79.9072V74.3323C978.667 60.5808 976.995 51.1035 973.65 45.9002C970.305 40.6969 965.164 38.0953 958.226 38.0953C955.624 38.0953 953.394 38.405 951.536 39.0245L948.935 39.9536V67.8282L946.519 68.3857C944.537 68.6335 942.864 68.7574 941.501 68.7574C937.289 68.7574 933.882 67.5185 931.281 65.0408C928.803 62.4391 927.564 59.0322 927.564 54.8201C927.564 49.1213 930.413 44.2897 936.112 40.3253C941.935 36.3609 950.545 34.3787 961.943 34.3787C971.606 34.3787 979.906 36.1131 986.844 39.582C993.906 42.9269 999.233 47.6346 1002.83 53.7051C1006.54 59.6517 1008.4 66.5274 1008.4 74.3323V124.507L1019.55 127.294V130.082H1002.83C995.392 130.082 989.631 127.79 985.543 123.206C983.809 121.347 982.446 118.994 981.455 116.144C979.72 119.241 977.676 122.029 975.322 124.507C969.748 130.082 962.81 132.869 954.509 132.869ZM961.943 126.365C966.526 126.365 970.677 123.887 974.393 118.932C975.756 117.073 977.181 114.596 978.667 111.498V84.553C972.969 84.553 967.518 84.8627 962.314 85.4821C958.474 85.9777 955.872 86.2874 954.509 86.4113C953.89 87.7741 953.271 89.6324 952.651 91.9862C951.412 96.6939 950.793 101.34 950.793 105.924C950.793 112.861 951.846 118.003 953.952 121.347C956.058 124.692 958.722 126.365 961.943 126.365Z" fill="white"/>
<path d="M1019.64 127.294L1030.79 124.507V5.57493L1019.64 2.78746V0H1043.8C1054.95 0 1060.52 5.57493 1060.52 16.7248V46.4577C1062.38 43.9799 1064.3 41.9977 1066.28 40.5111C1071.61 36.4228 1077.74 34.3787 1084.68 34.3787C1091.62 34.3787 1097.81 35.8653 1103.26 38.8386C1108.84 41.688 1113.17 45.4666 1116.27 50.1743C1119.37 54.882 1120.92 59.8375 1120.92 65.0408V124.507L1132.06 127.294V130.082H1107.91C1096.76 130.082 1091.18 124.507 1091.18 113.357V65.0408C1091.18 57.2359 1089.76 51.2893 1086.91 47.201C1084.18 42.9888 1080.96 40.8828 1077.24 40.8828C1072.54 40.8828 1068.32 43.3605 1064.61 48.316C1063 50.4221 1061.64 52.8998 1060.52 55.7492V124.507L1071.67 127.294V130.082H1019.64V127.294Z" fill="white"/>
<path d="M900.578 187.349C904.212 187.349 907.144 188.133 909.374 189.702C911.687 191.189 913.339 193.75 914.33 197.384C916.973 194.988 919.864 192.717 923.002 190.57C926.223 188.422 929.279 187.349 932.17 187.349C936.547 187.349 939.851 188.257 942.081 190.074C944.311 191.891 945.798 194.699 946.541 198.499C947.367 202.298 947.78 207.129 947.78 212.994V226.374C947.78 228.191 947.78 229.884 947.78 231.453C947.862 233.022 948.069 234.302 948.399 235.294C948.564 235.706 949.143 236.078 950.134 236.408C951.207 236.739 952.322 236.987 953.479 237.152C954.635 237.234 955.461 237.276 955.957 237.276C956.204 237.606 956.328 238.184 956.328 239.01C956.411 239.836 956.287 240.414 955.957 240.745C953.479 240.579 951.29 240.456 949.39 240.373C947.573 240.208 945.467 240.125 943.072 240.125C940.76 240.125 938.653 240.208 936.754 240.373C934.854 240.456 932.665 240.579 930.188 240.745C929.857 240.414 929.692 239.836 929.692 239.01C929.775 238.184 929.94 237.606 930.188 237.276C930.683 237.276 931.509 237.234 932.665 237.152C933.904 236.987 935.061 236.739 936.134 236.408C937.208 236.078 937.786 235.706 937.869 235.294C938.117 234.468 938.24 233.435 938.24 232.196C938.323 230.875 938.364 229.429 938.364 227.86C938.364 227.612 938.364 227.365 938.364 227.117C938.364 226.869 938.364 226.621 938.364 226.374V213.365C938.364 209.318 938.075 205.891 937.497 203.082C937.002 200.274 935.969 198.127 934.4 196.64C932.831 195.154 930.394 194.41 927.09 194.41C925.108 194.41 923.209 194.947 921.392 196.021C919.575 197.012 918.088 198.086 916.932 199.242C915.775 200.316 915.197 201.018 915.197 201.348C915.197 201.431 915.197 201.678 915.197 202.091C915.28 202.422 915.321 202.67 915.321 202.835C915.486 203.991 915.61 205.436 915.693 207.171C915.775 208.905 915.817 210.351 915.817 211.507V226.374C915.817 228.191 915.817 229.884 915.817 231.453C915.899 233.022 916.106 234.302 916.436 235.294C916.601 235.706 917.179 236.078 918.17 236.408C919.244 236.739 920.359 236.987 921.515 237.152C922.672 237.234 923.498 237.276 923.993 237.276C924.241 237.606 924.365 238.184 924.365 239.01C924.447 239.836 924.324 240.414 923.993 240.745C921.515 240.579 919.327 240.456 917.427 240.373C915.61 240.208 913.504 240.125 911.109 240.125C908.796 240.125 906.69 240.208 904.791 240.373C902.891 240.456 900.702 240.579 898.224 240.745C897.894 240.414 897.729 239.836 897.729 239.01C897.811 238.184 897.977 237.606 898.224 237.276C898.72 237.276 899.546 237.234 900.702 237.152C901.941 236.987 903.097 236.739 904.171 236.408C905.245 236.078 905.823 235.706 905.905 235.294C906.236 234.302 906.401 233.022 906.401 231.453C906.484 229.884 906.525 228.191 906.525 226.374V213.985C906.525 206.634 905.699 201.555 904.047 198.746C902.478 195.856 899.505 194.41 895.127 194.41C893.31 194.41 891.534 194.865 889.8 195.773C888.066 196.682 886.62 197.673 885.464 198.746C884.39 199.737 883.853 200.522 883.853 201.1V226.374C883.853 228.191 883.853 229.884 883.853 231.453C883.936 233.022 884.142 234.302 884.473 235.294C884.638 235.706 885.216 236.078 886.207 236.408C887.281 236.739 888.396 236.987 889.552 237.152C890.709 237.234 891.534 237.276 892.03 237.276C892.278 237.606 892.402 238.184 892.402 239.01C892.484 239.836 892.36 240.414 892.03 240.745C889.552 240.579 887.364 240.456 885.464 240.373C883.647 240.208 881.541 240.125 879.146 240.125C876.833 240.125 874.727 240.208 872.827 240.373C870.928 240.456 868.739 240.579 866.261 240.745C865.931 240.414 865.766 239.836 865.766 239.01C865.848 238.184 866.013 237.606 866.261 237.276C866.757 237.276 867.583 237.234 868.739 237.152C869.978 236.987 871.134 236.739 872.208 236.408C873.281 236.078 873.86 235.706 873.942 235.294C874.273 234.302 874.438 233.022 874.438 231.453C874.52 229.884 874.562 228.191 874.562 226.374V204.321C874.562 203.495 874.52 202.339 874.438 200.852C874.438 199.366 874.273 198.251 873.942 197.507C873.694 196.764 872.992 196.269 871.836 196.021C870.68 195.69 869.524 195.525 868.367 195.525C867.211 195.443 866.468 195.401 866.137 195.401C866.055 195.236 865.972 194.741 865.889 193.915C865.807 193.089 865.889 192.511 866.137 192.18C869.276 191.767 872.332 191.148 875.305 190.322C878.278 189.496 880.963 188.422 883.358 187.101C883.688 187.101 883.977 187.349 884.225 187.844C884.555 188.34 884.721 188.753 884.721 189.083C884.721 189.331 884.638 189.909 884.473 190.818C884.39 191.726 884.266 192.635 884.101 193.543C884.019 194.452 883.977 195.071 883.977 195.401C883.977 195.732 884.06 195.897 884.225 195.897C884.308 195.897 884.431 195.814 884.597 195.649C885.588 194.741 886.909 193.667 888.561 192.428C890.213 191.107 892.071 189.95 894.136 188.959C896.283 187.885 898.431 187.349 900.578 187.349Z" fill="white"/>
<path d="M965.098 188.959C967.411 188.959 969.723 188.877 972.036 188.711C974.431 188.546 976.166 188.422 977.239 188.34C977.404 188.67 977.446 189.331 977.363 190.322C977.28 191.313 977.074 191.809 976.744 191.809C976.496 191.809 975.876 191.85 974.885 191.932C973.894 192.015 972.944 192.222 972.036 192.552C971.21 192.8 970.797 193.254 970.797 193.915C970.797 194.08 970.838 194.245 970.921 194.41L983.805 227.117C983.805 227.117 984.136 226.25 984.796 224.515C985.457 222.698 986.324 220.427 987.398 217.701C988.472 214.893 989.628 211.879 990.867 208.657C992.106 205.436 993.303 202.422 994.46 199.614C994.79 198.87 994.997 198.168 995.079 197.507C995.162 196.764 995.203 196.186 995.203 195.773C995.203 194.534 994.542 193.584 993.221 192.924C991.982 192.18 990.33 191.809 988.265 191.809C987.935 191.809 987.77 191.313 987.77 190.322C987.77 189.331 987.935 188.67 988.265 188.34C989.174 188.422 990.578 188.546 992.478 188.711C994.46 188.877 996.69 188.959 999.167 188.959C1001.48 188.959 1003.42 188.877 1004.99 188.711C1006.64 188.546 1008.09 188.422 1009.33 188.34C1009.57 188.67 1009.62 189.331 1009.45 190.322C1009.37 191.313 1009.2 191.809 1008.95 191.809C1008.62 191.809 1007.92 191.932 1006.85 192.18C1005.86 192.428 1004.78 192.841 1003.63 193.419C1002.55 193.997 1001.77 194.865 1001.27 196.021C999.457 200.316 997.805 204.197 996.318 207.666C994.914 211.135 993.51 214.522 992.106 217.825C990.784 221.046 989.38 224.433 987.894 227.984C986.49 231.453 984.92 235.335 983.186 239.63C981.699 243.346 980.254 247.063 978.85 250.78C977.446 254.496 975.67 257.965 973.523 261.186C972.201 263.251 970.591 264.903 968.691 266.142C966.874 267.381 964.974 268 962.992 268C961.836 268 960.679 267.67 959.523 267.009C958.367 266.348 957.789 264.944 957.789 262.797C957.789 262.053 957.913 261.351 958.16 260.691C958.491 260.03 958.821 259.534 959.151 259.204C961.051 259.204 962.703 259.08 964.107 258.832C965.594 258.667 966.998 258.089 968.319 257.098C969.723 256.107 971.251 254.538 972.903 252.39C973.564 251.482 974.307 250.119 975.133 248.302C975.959 246.567 976.702 244.874 977.363 243.222C978.106 241.571 978.519 240.538 978.602 240.125C976.372 234.344 974.266 228.975 972.284 224.02C970.301 218.982 968.278 214.067 966.213 209.277C964.231 204.404 962.042 199.407 959.647 194.286C959.069 193.047 958.036 192.345 956.55 192.18C955.063 191.932 953.948 191.809 953.205 191.809C953.04 191.809 952.957 191.809 952.957 191.809C952.874 191.809 952.833 191.272 952.833 190.198C952.833 189.042 952.874 188.422 952.957 188.34C954.113 188.422 955.806 188.546 958.036 188.711C960.266 188.877 962.62 188.959 965.098 188.959Z" fill="white"/>
<path d="M1021.34 214.604C1021.92 213.035 1023.08 212.87 1024.81 214.109L1035.72 221.666C1036.95 222.492 1037.08 224.144 1036.09 226.621L1031.26 238.143C1030.35 240.29 1028.78 240.497 1026.55 238.762L1017.26 231.701C1015.69 230.462 1015.19 229.182 1015.77 227.86L1021.34 214.604Z" fill="white"/>
<path d="M1052.98 168.641C1052.98 166.99 1053.56 165.586 1054.72 164.429C1055.96 163.19 1057.4 162.571 1059.05 162.571C1060.71 162.571 1062.11 163.19 1063.27 164.429C1064.51 165.586 1065.12 166.99 1065.12 168.641C1065.12 170.293 1064.51 171.739 1063.27 172.978C1062.11 174.134 1060.71 174.712 1059.05 174.712C1057.4 174.712 1055.96 174.134 1054.72 172.978C1053.56 171.739 1052.98 170.293 1052.98 168.641ZM1064.63 226.374C1064.63 228.191 1064.63 229.884 1064.63 231.453C1064.71 233.022 1064.92 234.302 1065.25 235.294C1065.41 235.706 1065.99 236.078 1066.98 236.408C1068.06 236.739 1069.17 236.987 1070.33 237.152C1071.48 237.234 1072.31 237.276 1072.81 237.276C1073.05 237.606 1073.18 238.184 1073.18 239.01C1073.26 239.836 1073.14 240.414 1072.81 240.745C1070.33 240.579 1068.14 240.456 1066.24 240.373C1064.42 240.208 1062.32 240.125 1059.92 240.125C1057.61 240.125 1055.5 240.208 1053.6 240.373C1051.7 240.456 1049.51 240.579 1047.04 240.745C1046.71 240.414 1046.54 239.836 1046.54 239.01C1046.62 238.184 1046.79 237.606 1047.04 237.276C1047.53 237.276 1048.36 237.234 1049.51 237.152C1050.75 236.987 1051.91 236.739 1052.98 236.408C1054.06 236.078 1054.64 235.706 1054.72 235.294C1055.05 234.302 1055.21 233.022 1055.21 231.453C1055.3 229.884 1055.34 228.191 1055.34 226.374V203.826C1055.34 203 1055.3 201.926 1055.21 200.605C1055.21 199.283 1055.05 198.251 1054.72 197.507C1054.47 196.764 1053.77 196.269 1052.61 196.021C1051.46 195.69 1050.3 195.525 1049.14 195.525C1047.99 195.443 1047.24 195.401 1046.91 195.401C1046.83 195.236 1046.75 194.741 1046.67 193.915C1046.58 193.089 1046.67 192.511 1046.91 192.18C1050.05 191.767 1053.11 191.148 1056.08 190.322C1059.05 189.496 1061.74 188.422 1064.13 187.101C1064.46 187.101 1064.75 187.349 1065 187.844C1065.33 188.34 1065.5 188.753 1065.5 189.083C1065.5 189.331 1065.41 190.033 1065.25 191.189C1065.08 192.345 1064.92 193.502 1064.75 194.658C1064.67 195.814 1064.63 196.599 1064.63 197.012V226.374Z" fill="white"/>
<path d="M1105.72 187.349C1107.04 187.349 1108.61 187.514 1110.43 187.844C1112.25 188.092 1113.44 188.34 1114.02 188.587C1114.44 188.587 1114.64 187.762 1114.64 186.11V172.854C1114.64 171.945 1114.6 170.871 1114.52 169.633C1114.52 168.311 1114.35 167.279 1114.02 166.535C1113.69 165.627 1112.78 165.049 1111.3 164.801C1109.81 164.553 1108.24 164.429 1106.59 164.429C1106.51 164.429 1106.42 163.934 1106.34 162.943C1106.34 161.869 1106.47 161.291 1106.71 161.208C1109.77 160.878 1112.74 160.3 1115.63 159.474C1118.61 158.565 1121.37 157.533 1123.93 156.376C1124.26 156.376 1124.55 156.624 1124.8 157.12C1125.13 157.533 1125.3 157.946 1125.3 158.359C1125.3 158.359 1125.05 159.267 1124.55 161.084C1124.14 162.901 1123.93 165.503 1123.93 168.889V220.675C1123.93 222.987 1123.98 225.341 1124.06 227.736C1124.22 230.049 1124.47 231.659 1124.8 232.568C1125.21 233.476 1126.16 234.055 1127.65 234.302C1129.22 234.468 1130.42 234.591 1131.24 234.674C1131.57 234.674 1131.78 234.674 1131.86 234.674C1132.03 234.757 1132.11 235.004 1132.11 235.417C1132.19 235.748 1132.23 235.996 1132.23 236.161C1132.23 236.243 1132.15 236.574 1131.99 237.152C1131.9 237.647 1131.7 237.895 1131.37 237.895C1129.3 237.978 1127.03 238.308 1124.55 238.886C1122.16 239.464 1120.09 240.001 1118.36 240.497C1116.62 241.075 1115.72 241.364 1115.63 241.364C1115.3 241.364 1115.06 241.075 1114.89 240.497C1114.72 239.919 1114.64 239.423 1114.64 239.01V234.798C1114.64 234.055 1114.52 233.807 1114.27 234.055C1113.69 234.715 1112.45 235.624 1110.55 236.78C1108.74 237.936 1106.71 239.01 1104.48 240.001C1102.25 240.91 1100.15 241.364 1098.17 241.364C1094.53 241.364 1091.06 240.249 1087.76 238.019C1084.54 235.706 1081.89 232.609 1079.83 228.727C1077.85 224.763 1076.86 220.344 1076.86 215.471C1076.86 211.507 1077.81 207.832 1079.71 204.445C1081.69 200.976 1084.17 198.003 1087.14 195.525C1090.19 192.965 1093.37 190.983 1096.68 189.579C1099.98 188.092 1103 187.349 1105.72 187.349ZM1101.76 192.428C1098.7 192.428 1096.06 193.419 1093.83 195.401C1091.68 197.301 1089.99 199.779 1088.75 202.835C1087.59 205.891 1087.02 209.112 1087.02 212.498C1087.02 216.297 1087.68 219.807 1089 223.029C1090.32 226.25 1092.26 228.851 1094.82 230.834C1097.38 232.816 1100.48 233.807 1104.11 233.807C1106.84 233.807 1109.27 233.27 1111.42 232.196C1113.57 231.04 1114.64 229.966 1114.64 228.975V198.375C1114.64 196.971 1113.32 195.649 1110.68 194.41C1108.12 193.089 1105.14 192.428 1101.76 192.428Z" fill="white"/>
<path d="M8.51172 131.522L21.8943 128.176L21.8944 30.037L8.51173 26.6913L8.51173 23.3457L28.5857 23.3457C37.3587 23.3457 44.2731 26.1709 49.3288 31.8213C51.2618 34.0518 52.8975 36.8026 54.2357 40.0739C56.4662 35.9105 58.8453 32.5648 61.3731 30.037C68.0644 23.3457 75.7223 20 84.3466 20C92.971 20 100.554 21.9331 107.097 25.7991C113.64 29.5165 118.695 34.6466 122.264 41.1892C124.495 36.877 126.874 33.3826 129.401 30.7061C136.242 23.5687 143.899 20 152.375 20C160.256 20 167.319 21.6357 173.564 24.907C179.958 28.1783 184.865 32.6392 188.285 38.2896C191.854 43.9401 193.638 50.1109 193.638 56.8022V128.176L207.021 131.522V134.868L178.025 134.868C164.642 134.868 157.951 128.176 157.951 114.794L157.951 56.8022C157.951 47.137 156.464 39.9253 153.49 35.167C150.516 30.26 147.171 27.8065 143.453 27.8065C139.141 27.8065 134.755 30.7805 130.294 36.7283C128.509 39.5535 126.948 42.5274 125.61 45.6501L125.61 128.176L138.992 131.522V134.868H76.5401V131.522L89.9227 128.176L89.9227 56.8022C89.9227 47.137 88.4358 39.9253 85.4619 35.167C82.4879 30.26 79.1423 27.8065 75.4249 27.8065C71.1127 27.8065 66.7262 30.7805 62.2653 36.7283C60.4809 39.5535 58.9196 42.5274 57.5814 45.65L57.5814 128.176L70.964 131.522V134.868L8.51172 134.868L8.51172 131.522Z" fill="white"/>
<path d="M200.478 30.037L189.325 26.6913V23.3457L214.975 23.3457C222.856 23.3457 229.101 24.9813 233.711 28.2526C238.321 31.5239 242.112 36.2079 245.086 42.3044L269.621 93.6045L282.335 61.0401L267.391 30.037L256.238 26.6913V23.3457L281.889 23.3457C289.769 23.3457 296.015 24.9813 300.624 28.2526C305.234 31.524 309.026 36.2079 311.999 42.3044L336.534 93.6045L359.954 33.3827L343.226 26.6913V23.3457L384.489 23.3457V26.6913L366.645 33.3827L325.382 137.098H318.691L285.68 68.4005L258.469 137.098H251.778L200.478 30.037Z" fill="white"/>
<path d="M8.51173 136.452L21.8944 139.798V237.937L8.51173 241.283V244.628H28.5857C37.3587 244.628 44.2731 241.803 49.3288 236.153C51.2618 233.922 52.8975 231.171 54.2357 227.9C56.4662 232.064 58.8453 235.409 61.3731 237.937C68.0644 244.628 75.7223 247.974 84.3466 247.974C92.971 247.974 100.554 246.041 107.097 242.175C113.64 238.457 118.695 233.327 122.264 226.785C124.495 231.097 126.874 234.591 129.401 237.268C136.242 244.405 143.899 247.974 152.375 247.974C160.256 247.974 167.319 246.338 173.564 243.067C179.958 239.796 184.865 235.335 188.285 229.684C191.854 224.034 193.638 217.863 193.638 211.172V139.798L207.021 136.452V133.106H178.025C164.642 133.106 157.951 139.798 157.951 153.18V211.172C157.951 220.837 156.464 228.049 153.49 232.807C150.516 237.714 147.171 240.167 143.453 240.167C139.141 240.167 134.755 237.194 130.294 231.246C128.509 228.421 126.948 225.447 125.61 222.324V139.798L138.992 136.452V133.106H76.5401V136.452L89.9227 139.798V211.172C89.9227 220.837 88.4358 228.049 85.4619 232.807C82.4879 237.714 79.1423 240.167 75.4249 240.167C71.1127 240.167 66.7262 237.194 62.2653 231.246C60.481 228.421 58.9196 225.447 57.5814 222.324V139.798L70.964 136.452V133.106H8.51173V136.452Z" fill="white"/>
<path d="M200.478 237.937L189.325 241.283V244.628H214.975C222.856 244.628 229.101 242.993 233.711 239.721C238.321 236.45 242.112 231.766 245.086 225.67L269.621 174.37L282.335 206.934L267.391 237.937L256.239 241.283V244.628H281.889C289.769 244.628 296.015 242.993 300.624 239.721C305.234 236.45 309.026 231.766 311.999 225.67L336.534 174.37L359.954 234.591L343.226 241.283V244.628H384.489V241.283L366.645 234.591L325.382 130.876H318.691L285.68 199.574L258.469 130.876H251.778L200.478 237.937Z" fill="white"/>
</svg>
